<svg width="232" height="81" viewBox="0 0 232 81" fill="none" xmlns="http://www.w3.org/2000/svg">
<g id="Component 8">
<g id="Vector">
<path d="M46.9307 34.7143V46.2857H23.4656V57.8571H11.7331V46.2857H0.000579834V34.7143H11.7331V23.1429H23.4656V34.7143H46.9307ZM35.1982 11.5714H23.4656V23.1429H35.1982V11.5714ZM35.1982 11.5714H46.9307V0H35.1982V11.5714ZM35.1982 69.4286H23.4656V57.8571H35.1982V69.4286ZM35.1982 69.4286H46.9307V81H35.1982V69.4286Z" fill="white"/>
<path fill-rule="evenodd" clip-rule="evenodd" d="M223.862 46.2363H231.791V34.7363H223.862V46.2363ZM197.433 46.2363H213.291V34.7363H197.433V46.2363ZM171.004 46.2363H186.862V34.7363H171.004V46.2363ZM144.575 46.2363H160.433V34.7363H144.575V46.2363ZM118.146 46.2363H134.004V34.7363H118.146V46.2363ZM91.7175 46.2363H107.575V34.7363H91.7175V46.2363ZM65.2886 46.2363H81.146V34.7363H65.2886V46.2363ZM46.7883 46.2363H54.717V34.7363H46.7883V46.2363Z" fill="white"/>
</g>
</g>
</svg>
