<svg width="232" height="83" viewBox="0 0 232 83" fill="none" xmlns="http://www.w3.org/2000/svg">
<g id="Component 8">
<g id="Vector">
<path d="M184.86 35.7143V47.2857H208.325V58.8571H220.058V47.2857H231.79V35.7143H220.058V24.1429H208.325V35.7143H184.86ZM196.593 12.5714H208.325V24.1429H196.593V12.5714ZM196.593 12.5714H184.86V1H196.593V12.5714ZM196.593 70.4286H208.325V58.8571H196.593V70.4286ZM196.593 70.4286H184.86V82H196.593V70.4286Z" fill="white"/>
<path fill-rule="evenodd" clip-rule="evenodd" d="M7.92869 47.2363H0V35.7363H7.92869V47.2363ZM34.3576 47.2363H18.5003V35.7363H34.3576V47.2363ZM60.7866 47.2363H44.9292V35.7363H60.7866V47.2363ZM87.2156 47.2363H71.3582V35.7363H87.2156V47.2363ZM113.645 47.2363H97.7871V35.7363H113.645V47.2363ZM140.073 47.2363H124.216V35.7363H140.073V47.2363ZM166.502 47.2363H150.645V35.7363H166.502V47.2363ZM185.003 47.2363H177.074V35.7363H185.003V47.2363Z" fill="white"/>
</g>
</g>
</svg>
