<?xml version="1.0" encoding="UTF-8"?>
<svg width="32px" height="69px" viewBox="0 0 32 69" version="1.1" xmlns="http://www.w3.org/2000/svg" xmlns:xlink="http://www.w3.org/1999/xlink">
  <defs>
    <linearGradient id="gradient" x1="0" y1="100%" x2="100%" y2="0" gradientUnits="userSpaceOnUse">
      <stop offset="0" stop-color="#393939" />
      <stop offset="1" stop-color="#CDCDCD" />
    </linearGradient>
  </defs>
  <g stroke="none" stroke-width="1" fill="url(#gradient)">
    <path d="M2.5,60.3669166 L2.5,68.3669166 L0.5,68.3669166 L0.5,60.3669166 L2.5,60.3669166 Z M2.5,48.3669166 L2.5,56.3669166 L0.5,56.3669166 L0.5,48.3669166 L2.5,48.3669166 Z M2.5,36.3669166 L2.5,44.3669166 L0.5,44.3669166 L0.5,36.3669166 L2.5,36.3669166 Z M2.5,24.3669166 L2.5,32.3669166 L0.5,32.3669166 L0.5,24.3669166 L2.5,24.3669166 Z M2.5,12.3669166 L2.5,20.3669166 L0.5,20.3669166 L0.5,12.3669166 L2.5,12.3669166 Z M17.5,0.366916601 L31.5,7.3669166 L17.5,14.3669166 L17.5,8.366 L15.1345087,8.3669166 L15.1345087,6.3669166 L17.5,6.366 L17.5,0.366916601 Z M11.1345087,6.3669166 L11.1345087,8.3669166 L7.5,8.3669166 C6.64106861,8.3669166 5.81605826,8.58306744 5.0841728,8.98798529 L4.84374126,9.12991171 L3.9970795,9.66204315 L2.93281662,7.96871963 L3.77947838,7.43658819 C4.80033062,6.7949771 5.97027725,6.42644265 7.19321673,6.37354155 L7.5,6.3669166 L11.1345087,6.3669166 Z"></path>
  </g>
</svg>