<?xml version="1.0" encoding="UTF-8"?>
<svg width="39px" height="62px" viewBox="0 0 39 62" version="1.1" xmlns="http://www.w3.org/2000/svg" xmlns:xlink="http://www.w3.org/1999/xlink">
  <defs>
    <linearGradient id="gradient" x1="100%" y1="0" x2="0" y2="0" gradientUnits="userSpaceOnUse">
      <stop offset="0" stop-color="#CDCDCD" />
      <stop offset="1" stop-color="#393939" />
    </linearGradient>
  </defs>
  <g stroke="none" stroke-width="1" fill="url(#gradient)">
    <path d="M32.5,45.1345087 L32.5,47.5 L38.5,47.5 L31.5,61.5 L24.5,47.5 L30.5,47.5 L30.5,45.1345087 L32.5,45.1345087 Z M32.5,33.1345087 L32.5,41.1345087 L30.5,41.1345087 L30.5,33.1345087 L32.5,33.1345087 Z M32.5,21.1345087 L32.5,29.1345087 L30.5,29.1345087 L30.5,21.1345087 L32.5,21.1345087 Z M32.5,9.13450874 L32.5,17.1345087 L30.5,17.1345087 L30.5,9.13450874 L32.5,9.13450874 Z M25.5,0.5 C27.8459097,0.5 29.9932791,1.66410491 31.2851057,3.55776606 L31.4303284,3.77947838 L31.9624598,4.62614014 L30.2691363,5.69040301 L29.7370049,4.84374126 C28.8684773,3.46184747 27.3838945,2.58259824 25.7364136,2.50552164 L25.5,2.5 L24.5,2.5 L24.5,0.5 L25.5,0.5 Z M8.5,0.5 L8.5,2.5 L0.5,2.5 L0.5,0.5 L8.5,0.5 Z M20.5,0.5 L20.5,2.5 L12.5,2.5 L12.5,0.5 L20.5,0.5 Z"></path>
  </g>
</svg>