<svg width="100%" height="100%" viewBox="0 0 180 180" fill="none" xmlns="http://www.w3.org/2000/svg">
<mask id="mask0_1_1588" style="mask-type:luminance" maskUnits="userSpaceOnUse" x="0" y="1" width="179" height="178">
<path d="M174.84 64.78C176.038 68.9562 176.966 73.2049 177.62 77.5C178.221 82.1423 178.519 86.8189 178.51 91.5C178.178 109.435 172.422 126.85 162 141.45C159.581 144.895 156.907 148.155 154 151.2C151.247 154.111 148.293 156.824 145.16 159.32C139.145 164.106 132.541 168.102 125.51 171.21C119.04 173.83 117.69 174.37 114.7 175.15C113.05 175.59 110.87 176.26 109.19 176.59C105.9 177.22 101.49 178.02 98.19 178.36C90.3116 179.12 82.3666 178.814 74.57 177.45C70.3692 176.721 66.2254 175.696 62.17 174.38C57.7932 172.947 53.531 171.186 49.42 169.11C47.74 168.22 45.5 167.04 43.88 166.04C41.67 164.67 38.74 162.78 36.67 161.21C32.3138 157.955 28.2577 154.318 24.55 150.34C23.15 148.82 21.32 146.76 20.08 145.12C18.16 142.58 15.72 139.12 14.02 136.43C11.5914 132.293 9.42383 128.008 7.53001 123.6C7.11001 122.6 6.73996 121.5 6.40996 120.42C-2.19004 91.42 28.2 54.25 74.14 37.48C28.2 54.25 -2.19004 91.48 6.40996 120.42C6.73996 121.5 7.11001 122.56 7.53001 123.6C6.27001 120.42 4.37001 114.79 3.96001 113.02C3.48001 110.91 2.71998 108.13 2.36998 106.02C1.84998 102.87 1.36999 98.64 1.06999 95.47C0.804888 92.1694 0.784835 88.8536 1.01 85.55C1.33266 81.0071 1.89342 76.4842 2.68999 72C3.23898 69.1005 3.98059 66.2409 4.90996 63.44C5.55996 61.59 6.35996 59.1 7.09996 57.29C7.99996 55.07 9.25998 52.14 10.37 50.03C12.3886 45.9979 14.7296 42.1353 17.37 38.48C19.8016 35.0441 22.4751 31.7858 25.37 28.73C28.1161 25.8123 31.0741 23.1016 34.22 20.62C37.2402 18.2072 40.4135 15.9926 43.72 13.99C46.9755 12.0003 50.3672 10.2426 53.87 8.73001C55.47 8.08001 57.58 7.12002 59.22 6.58002C66.22 4.27002 66.79 4.08002 70.22 3.35002C73.65 2.62002 77.92 2.00002 81.22 1.58002C82.92 1.36002 85.22 1.32002 86.94 1.21002C90.8148 1.09573 94.6929 1.23268 98.55 1.62001C102.593 2.01819 106.604 2.70325 110.55 3.67002C114.776 4.68379 118.919 6.02106 122.94 7.67002C135.075 12.5493 145.974 20.0637 154.85 29.67C156.23 31.19 158.07 33.24 159.32 34.89C161.509 37.6652 163.532 40.5669 165.38 43.58C167.51 47.33 170.11 52.47 171.86 56.41C172.998 59.1464 173.993 61.9402 174.84 64.78Z" fill="white"/>
</mask>
<g mask="url(#mask0_1_1588)">
<path d="M78.38 161.93C45.66 161.93 16.7 146.61 6.05002 120.55C-2.60998 91.39 27.86 54 74 37.16L74.31 37.05L74.43 37.35C89.03 73.1 107.91 125.74 116.51 154.71L116.6 155.02L116.3 155.12C104.156 159.59 91.321 161.895 78.38 161.93ZM73.9001 37.93C28.2901 54.7 -1.83997 91.62 6.69003 120.34C21.17 155.81 70.05 171.16 115.69 154.62C107.13 125.67 88.4201 73.51 73.9001 37.91V37.93Z" stroke="#A0A0A0" stroke-width="0.1" stroke-miterlimit="10"/>
<path d="M70.52 81.1C53.96 81.1 39.28 73.34 33.89 60.1L34.51 59.84C41.81 77.7 66.45 85.39 89.45 77L89.69 77.63C83.5521 79.899 77.0638 81.0735 70.52 81.1Z" stroke="#A0A0A0" stroke-width="0.1" stroke-miterlimit="10"/>
<path d="M72.06 125.65C43.8 125.65 18.77 112.42 9.58002 89.9L10.2 89.64C22.74 120.33 65.06 133.56 104.55 119.14L104.78 119.78C94.2991 123.63 83.2255 125.616 72.06 125.65Z" stroke="#A0A0A0" stroke-width="0.1" stroke-miterlimit="10"/>
<path d="M30.77 149.08C22.14 120.02 41.47 69.85 73.85 37.24L74.33 37.72C42.1 70.17 22.85 120 31.42 148.88L30.77 149.08Z" stroke="#A0A0A0" stroke-width="0.1" stroke-miterlimit="10"/>
<path d="M70.16 161.41C61.55 132.41 63.16 76.77 73.76 37.41L74.41 37.59C63.84 76.87 62.23 132.34 70.81 161.24L70.16 161.41Z" stroke="#A0A0A0" stroke-width="0.1" stroke-miterlimit="10"/>
<path d="M115.93 155.25L115.83 154.9C107.23 125.95 88.37 73.33 73.78 37.61L73.64 37.28L73.97 37.16C103.14 26.5 132.54 26.16 152.61 36.26C163.24 41.61 170.41 49.63 173.33 59.46C179.33 74.24 178.84 90.46 171.82 106.35C162.27 127.95 142.02 145.72 116.27 155.12L115.93 155.25ZM74.53 37.68C89.05 73.27 107.75 125.42 116.38 154.37C141.79 144.99 161.77 127.37 171.2 106.08C178.15 90.37 178.67 74.32 172.69 59.69C169.81 50.01 162.77 42.13 152.3 36.87C132.48 26.9 103.43 27.2 74.53 37.68Z" stroke="#A0A0A0" stroke-width="0.1" stroke-miterlimit="10"/>
<path d="M89.69 77.66L89.45 77.03C102.31 72.33 112.45 63.47 117.18 52.7C120.66 44.82 120.92 36.78 117.92 29.44L118.55 29.18C121.62 36.69 121.36 44.92 117.79 52.98C113 63.91 102.72 72.9 89.69 77.66Z" stroke="#A0A0A0" stroke-width="0.1" stroke-miterlimit="10"/>
<path d="M104.78 119.78L104.55 119.14C126.62 111.08 143.97 95.86 152.14 77.38C158.14 63.82 158.59 49.99 153.43 37.38L154.05 37.13C159.28 49.93 158.83 63.95 152.76 77.67C144.51 96.3 127 111.65 104.78 119.78Z" stroke="#A0A0A0" stroke-width="0.1" stroke-miterlimit="10"/>
<path d="M154.27 130.7C145.69 101.81 109.64 60.12 73.91 37.76L74.27 37.19C110.12 59.62 146.27 101.48 154.92 130.5L154.27 130.7Z" stroke="#A0A0A0" stroke-width="0.1" stroke-miterlimit="10"/>
<path d="M174.66 96.53C166.1 67.7 120.97 41.36 74.06 37.81L74.11 37.14C121.28 40.7 166.68 67.26 175.31 96.33L174.66 96.53Z" stroke="#A0A0A0" stroke-width="0.1" stroke-miterlimit="10"/>
<path d="M172.69 59.69C170.582 54.5434 167.728 49.7352 164.22 45.42C160.749 41.928 156.721 39.0384 152.3 36.87C132.4 26.87 103.2 27.2 74.2 37.8L73.9001 37.91L73.7801 37.61C71.5301 32.11 69.63 27.61 68.01 23.89C66.45 24.39 64.89 24.9234 63.33 25.49L62.99 25.61L62.89 25.27C57.43 6.89002 58.57 6.49002 59.12 6.27002C59.67 6.05002 60.82 5.70001 68.39 23.04C106.12 11.31 145.1 20.77 164.71 44.92C168.722 48.9826 171.681 53.9636 173.33 59.43L172.69 59.69ZM117.9 28.93C130.9 28.93 142.9 31.37 152.61 36.26C155.337 37.6222 157.928 39.2395 160.35 41.09C139.97 20.36 103.8 12.8 68.66 23.69C70.25 27.33 72.1101 31.74 74.2801 37.05C88.2438 31.8512 103.001 29.1041 117.9 28.93ZM59.36 6.93001C59.16 7.39001 59.09 10.02 63.43 24.7C64.87 24.18 66.31 23.7 67.75 23.24C61.52 9.00002 59.77 7.18002 59.36 7.00002V6.93001Z" stroke="#A0A0A0" stroke-width="0.1" stroke-miterlimit="10"/>
<path d="M117.92 29.44C110.63 11.58 86 3.88001 63 12.29L62.77 11.65C86.11 3.12001 111.14 10.99 118.57 29.18L117.92 29.44Z" stroke="#A0A0A0" stroke-width="0.1" stroke-miterlimit="10"/>
<path d="M153.43 37.36C140.89 6.68001 98.58 -6.56 59.08 7.87L58.85 7.23C98.69 -7.32 141.39 6.09001 154.06 37.11L153.43 37.36Z" stroke="#A0A0A0" stroke-width="0.1" stroke-miterlimit="10"/>
<path d="M74.33 37.72L73.85 37.24C93.68 17.24 114.75 7.67002 130.16 11.55C139.16 13.81 145.5 20.5 148.59 30.9L147.94 31.1C144.94 20.93 138.72 14.4 130 12.21C114.78 8.37002 94 17.92 74.33 37.72Z" stroke="#A0A0A0" stroke-width="0.1" stroke-miterlimit="10"/>
<path d="M74.41 37.57L73.76 37.39C79.94 14.44 87.98 1.21002 95.83 1.11002H95.92C101.22 1.11002 105.81 7.11002 109.2 18.57L108.55 18.76C105.25 7.65001 100.89 1.76001 95.92 1.76001H95.84C88.43 1.88001 80.42 15.26 74.41 37.57Z" stroke="#A0A0A0" stroke-width="0.1" stroke-miterlimit="10"/>
<path d="M6.04998 120.55C0.0499811 105.74 0.519981 89.55 7.54998 73.62C17.06 52.12 37.19 34.4 62.8 24.96C57.44 6.89003 58.57 6.49002 59.12 6.30002C59.67 6.11002 61.41 5.54002 74.4 37.3L74.53 37.63L74.2 37.75C28.43 54.46 -1.86 91.48 6.69 120.27L6.04998 120.55ZM59.36 7.00002C59.15 7.47002 59.09 10.13 63.54 25.12L63.63 25.42L63.33 25.53C37.75 34.87 17.64 52.53 8.16998 73.94C1.98998 87.94 0.889976 102.13 4.91998 115.4C0.999976 87.23 30.39 53.23 73.64 37.32C62.54 10.12 59.88 7.23002 59.36 7.00002Z" stroke="#A0A0A0" stroke-width="0.1" stroke-miterlimit="10"/>
<path d="M33.89 60.13C30.82 52.62 31.08 44.39 34.65 36.33C39.48 25.41 49.72 16.41 62.75 11.65L62.98 12.29C50.13 16.98 39.98 25.85 35.26 36.61C31.78 44.49 31.52 52.54 34.51 59.87L33.89 60.13Z" stroke="#A0A0A0" stroke-width="0.1" stroke-miterlimit="10"/>
<path d="M9.58003 89.9C4.35003 77.1 4.8 63.08 10.87 49.36C19.12 30.71 36.61 15.36 58.87 7.23001L59.1 7.87001C37.03 15.93 19.68 31.15 11.51 49.63C5.51002 63.18 5.06998 77.02 10.22 89.63L9.58003 89.9Z" stroke="#A0A0A0" stroke-width="0.1" stroke-miterlimit="10"/>
<path d="M24.45 49.48C21.14 38.32 22.23 30.27 27.6 26.19C35.81 19.93 53.26 24.05 74.27 37.19L73.91 37.76C53.15 24.76 35.99 20.65 28.01 26.76C22.88 30.66 21.87 38.46 25.1 49.32L24.45 49.48Z" stroke="#A0A0A0" stroke-width="0.1" stroke-miterlimit="10"/>
<path d="M4.04997 83.65C1.04997 73.49 2.79999 63.97 9.13999 56.11C20.51 42.02 44.78 34.92 74.14 37.11L74.09 37.78C45.01 35.59 20.92 42.58 9.69999 56.5C3.49999 64.18 1.77999 73.5 4.69999 83.42L4.04997 83.65Z" stroke="#A0A0A0" stroke-width="0.1" stroke-miterlimit="10"/>
<path d="M120.06 173.72C119.43 173.72 117.71 172.35 110.97 156.91C73.23 168.64 34.24 159.17 14.64 135.01C10.6309 130.953 7.6779 125.974 6.03998 120.51L6.67999 120.29C8.78313 125.428 11.6302 130.23 15.13 134.54C18.5991 138.041 22.6319 140.935 27.06 143.1C46.97 153.1 76.16 152.77 105.16 142.18L105.47 142.07L105.59 142.37C107.84 147.87 109.74 152.37 111.35 156.09C112.917 155.59 114.48 155.057 116.04 154.49L116.38 154.37L116.48 154.71C121.93 173.08 120.79 173.48 120.25 173.71C120.188 173.725 120.123 173.728 120.06 173.72ZM111.62 156.72C117.84 170.96 119.62 172.81 120.01 173.02C120.21 172.56 120.28 169.93 115.93 155.26C114.5 155.77 113.06 156.25 111.62 156.71V156.72ZM19 138.87C39.38 159.61 75.57 167.18 110.71 156.29C109.13 152.65 107.27 148.24 105.1 142.93C76.03 153.48 46.77 153.77 26.77 143.71C24.0337 142.344 21.4321 140.724 19 138.87Z" stroke="#A0A0A0" stroke-width="0.1" stroke-miterlimit="10"/>
<path d="M87.79 178.61C59.53 178.61 34.5 165.38 25.31 142.86L25.93 142.61C38.47 173.3 80.79 186.53 120.28 172.11L120.51 172.74C110.03 176.594 98.9559 178.581 87.79 178.61Z" stroke="#A0A0A0" stroke-width="0.1" stroke-miterlimit="10"/>
<path d="M56.33 169.27C53.9274 169.281 51.5326 168.996 49.2 168.42C40.2 166.16 33.87 159.47 30.77 149.08L31.42 148.88C34.42 159.04 40.65 165.57 49.42 167.77C64.6 171.59 85.42 162.06 105.09 142.26L105.57 142.74C88.6 159.78 70.78 169.27 56.33 169.27Z" stroke="#A0A0A0" stroke-width="0.1" stroke-miterlimit="10"/>
<path d="M83.44 178.86C78.14 178.86 73.56 172.86 70.16 161.41L70.81 161.22C74.11 172.32 78.48 178.22 83.44 178.22H83.52C90.94 178.13 98.95 164.76 104.95 142.45L105.61 142.63C99.43 165.63 91.38 178.8 83.53 178.9L83.44 178.86Z" stroke="#A0A0A0" stroke-width="0.1" stroke-miterlimit="10"/>
<path d="M120.06 173.72C119.28 173.72 116.79 171.58 104.96 142.63L104.83 142.3L105.16 142.18C150.94 125.47 181.23 88.44 172.68 59.66L173.31 59.43C179.36 74.24 178.84 90.43 171.82 106.35C162.3 127.86 142.18 145.58 116.57 155.02C121.92 173.09 120.79 173.48 120.25 173.68C120.19 173.705 120.125 173.718 120.06 173.72ZM105.72 142.72C116.83 169.88 119.48 172.72 120.01 173.03C120.21 172.57 120.28 169.9 115.83 154.92L115.74 154.62L116.04 154.51C141.62 145.17 161.72 127.51 171.2 106.1C177.38 92.1 178.47 77.91 174.44 64.64C178.37 92.79 149 126.79 105.72 142.7V142.72Z" stroke="#A0A0A0" stroke-width="0.1" stroke-miterlimit="10"/>
<path d="M120.51 172.74L120.28 172.11C142.35 164.05 159.7 148.83 167.87 130.34C173.87 116.79 174.32 102.95 169.16 90.34L169.78 90.08C175.01 102.88 174.56 116.9 168.49 130.63C160.24 149.27 142.76 164.62 120.51 172.74Z" stroke="#A0A0A0" stroke-width="0.1" stroke-miterlimit="10"/>
<path d="M141.72 156.65C132.47 156.65 119.64 151.88 105.1 142.79L105.46 142.21C126.21 155.21 143.37 159.33 151.36 153.21C156.48 149.31 157.49 141.51 154.27 130.66L154.92 130.46C158.23 141.61 157.14 149.66 151.76 153.75C149.23 155.71 145.83 156.65 141.72 156.65Z" stroke="#A0A0A0" stroke-width="0.1" stroke-miterlimit="10"/>
<path d="M115.63 143.24C112.26 143.24 108.79 143.11 105.25 142.84V142.16C134.35 144.36 158.42 137.36 169.65 123.44C175.84 115.76 177.56 106.44 174.65 96.53L175.3 96.33C178.3 106.48 176.56 116 170.21 123.86C160.23 136.26 140.24 143.24 115.63 143.24Z" stroke="#A0A0A0" stroke-width="0.1" stroke-miterlimit="10"/>
<path d="M105.09 142.93L104.96 142.63C90.36 106.87 71.49 54.22 62.89 25.27L62.8 24.96L63.1 24.85C109.2 8.01003 158.65 23.53 173.31 59.43C182 88.59 151.5 126 105.39 142.82L105.09 142.93ZM63.63 25.38C72.23 54.3 90.94 106.46 105.47 142.07C151.07 125.3 181.2 88.39 172.68 59.67C158.18 24.18 109.31 8.84003 63.63 25.38Z" stroke="#A0A0A0" stroke-width="0.1" stroke-miterlimit="10"/>
<path d="M169.16 90.33C156.62 59.64 114.31 46.41 74.81 60.83L74.58 60.2C114.42 45.65 157.12 59.06 169.79 90.07L169.16 90.33Z" stroke="#A0A0A0" stroke-width="0.1" stroke-miterlimit="10"/>
<path d="M105.52 142.74L105.04 142.26C137.26 109.81 156.51 59.94 147.94 31.1L148.59 30.9C157.22 60 137.9 110.13 105.52 142.74Z" stroke="#A0A0A0" stroke-width="0.1" stroke-miterlimit="10"/>
<path d="M105.61 142.59L104.95 142.41C115.52 103.13 117.14 47.66 108.55 18.76L109.2 18.57C117.82 47.57 116.2 103.21 105.61 142.59Z" stroke="#A0A0A0" stroke-width="0.1" stroke-miterlimit="10"/>
<path d="M61.47 151.05C48.47 151.05 36.47 148.61 26.76 143.71C16.12 138.36 8.95999 130.34 6.03999 120.51C0.0399914 105.74 0.520001 89.51 7.55 73.62C17.1 52.04 37.34 34.26 63.1 24.85L63.43 24.73L63.54 25.08C72.13 54 91 106.63 105.59 142.37L105.72 142.7L105.39 142.82C91.3374 148.087 76.4762 150.872 61.47 151.05ZM63 25.61C37.58 34.99 17.61 52.61 8.18001 73.9C1.23001 89.61 0.710016 105.66 6.69002 120.29C9.56002 129.96 16.61 137.84 27.07 143.1C46.9 153.1 75.95 152.78 104.84 142.3C90.31 106.69 71.61 54.55 63 25.61Z" stroke="#A0A0A0" stroke-width="0.1" stroke-miterlimit="10"/>
<path d="M25.31 142.86C20.08 130.07 20.53 116.05 26.6 102.32C34.85 83.67 52.34 68.32 74.6 60.2L74.83 60.83C52.76 68.89 35.41 84.11 27.24 102.59C21.24 116.15 20.8 129.99 25.95 142.59L25.31 142.86Z" stroke="#A0A0A0" stroke-width="0.1" stroke-miterlimit="10"/>
<path d="M105.1 142.79C69.25 120.36 33.1 78.5 24.45 49.48L25.1 49.28C33.68 78.17 69.72 119.86 105.46 142.21L105.1 142.79Z" stroke="#A0A0A0" stroke-width="0.1" stroke-miterlimit="10"/>
<path d="M105.25 142.84C58.09 139.28 12.69 112.72 4.04999 83.65L4.70001 83.45C13.27 112.29 58.39 138.62 105.3 142.16L105.25 142.84Z" stroke="#A0A0A0" stroke-width="0.1" stroke-miterlimit="10"/>
<path d="M89.83 179.11C84.6778 179.124 79.5345 178.682 74.46 177.79C70.2402 177.05 66.0768 176.017 62 174.7C57.6075 173.267 53.3316 171.498 49.21 169.41C47.34 168.41 45.21 167.3 43.64 166.33C42.28 165.48 38.85 163.33 36.4 161.48C32.0254 158.214 27.9554 154.56 24.24 150.56C22.9 149.11 21.04 147.03 19.75 145.32C17.75 142.69 15.32 139.19 13.67 136.61C11.3075 132.591 9.19678 128.43 7.34997 124.15L7.15997 123.74C6.99997 123.36 6.85001 122.96 6.70001 122.56C5.47001 119.32 3.93 114.69 3.57 113.12C3.42 112.47 3.25 111.76 3.07 111.03C2.65 109.32 2.21997 107.56 1.96997 106.03C1.42997 102.75 0.969979 98.42 0.669978 95.46C0.40789 92.1325 0.38784 88.7904 0.609981 85.46C0.957019 80.9463 1.53779 76.4536 2.34997 72C2.9002 69.0815 3.652 66.2046 4.59997 63.39C4.76997 62.9 4.95 62.39 5.13 61.82C5.65 60.29 6.23997 58.56 6.78997 57.22C7.47997 55.51 8.79 52.29 10.07 49.93C12.089 45.8885 14.4299 42.0161 17.07 38.35C19.5206 34.8965 22.2177 31.6246 25.14 28.56C27.9047 25.6343 30.8757 22.9107 34.03 20.41C37.0597 17.9851 40.2467 15.7636 43.57 13.76C46.8404 11.7633 50.2452 9.99576 53.76 8.47002C54.27 8.27002 54.84 8.03001 55.42 7.78001C56.69 7.24001 58 6.69002 59.13 6.32002C66.13 4.00002 66.72 3.81002 70.13 3.07002C73.73 2.30002 78.61 1.63002 81.19 1.30002C82.38 1.15002 83.82 1.08002 85.19 1.02002C85.79 1.02002 86.38 0.970007 86.91 0.930007C90.8014 0.815403 94.6962 0.952358 98.57 1.34001C102.637 1.74398 106.67 2.43233 110.64 3.40001C114.877 4.41264 119.029 5.74993 123.06 7.40001C135.221 12.2785 146.15 19.7921 155.06 29.4C156.6 31.1 158.34 33.05 159.55 34.64L159.61 34.73C161.779 37.4888 163.783 40.3739 165.61 43.37C167.75 47.14 170.37 52.31 172.11 56.23C173.254 58.9901 174.255 61.8072 175.11 64.67C176.312 68.8632 177.248 73.1284 177.91 77.44C178.505 82.1029 178.799 86.7993 178.79 91.5C178.676 100.015 177.304 108.466 174.72 116.58C173.283 121.214 171.453 125.717 169.25 130.04C163.489 141.489 155.322 151.559 145.31 159.56C139.265 164.372 132.628 168.389 125.56 171.51C119.09 174.13 117.74 174.68 114.71 175.51L113.06 175.97C111.73 176.34 110.35 176.72 109.18 176.97C104.51 177.87 100.79 178.47 98.12 178.74C95.3647 179.004 92.5978 179.127 89.83 179.11ZM7.83001 123.47L8.02002 123.87C9.84807 128.124 11.9422 132.259 14.29 136.25C15.93 138.82 18.36 142.3 20.29 144.91C21.57 146.6 23.42 148.67 24.74 150.11C28.4368 154.072 32.4795 157.696 36.82 160.94C39.25 162.77 42.65 164.94 44.01 165.75C45.56 166.75 47.67 167.83 49.53 168.81C57.4028 172.81 65.8292 175.611 74.53 177.12C82.2977 178.472 90.2117 178.774 98.06 178.02C100.71 177.75 104.41 177.16 109.06 176.26C110.2 176.04 111.56 175.65 112.87 175.26C113.46 175.09 114.03 174.93 114.54 174.8C117.54 174.02 118.87 173.47 125.31 170.86C132.31 167.771 138.884 163.795 144.87 159.03C151.278 153.905 156.942 147.915 161.7 141.23C167.097 133.635 171.274 125.244 174.08 116.36C176.624 108.304 177.971 99.9177 178.08 91.47C178.091 86.7892 177.797 82.1126 177.2 77.47C176.549 73.1951 175.623 68.9664 174.43 64.81C173.69 62.46 172.58 58.91 171.49 56.45C169.75 52.54 167.15 47.4 165.01 43.64C163.179 40.6717 161.176 37.8134 159.01 35.08L158.95 34.99C157.76 33.42 156.03 31.48 154.5 29.79C145.676 20.2837 134.862 12.8432 122.83 8.00001C118.832 6.35309 114.713 5.01582 110.51 4.00001C106.562 3.05019 102.552 2.38184 98.51 2.00001C94.673 1.6128 90.8148 1.47584 86.96 1.59001L85.22 1.68001C83.84 1.74001 82.41 1.80001 81.22 1.95001C78.64 2.28001 73.79 2.95002 70.22 3.71002C66.84 4.45002 66.27 4.63002 59.28 6.94002C58.18 7.30002 56.88 7.85002 55.62 8.38002L53.96 9.08002C50.4798 10.5811 47.1112 12.3289 43.88 14.31C40.5726 16.2989 37.4021 18.5072 34.39 20.92C31.2566 23.398 28.3088 26.1018 25.57 29.01C22.6713 32.0483 19.9976 35.2936 17.57 38.72C14.9585 42.3583 12.6379 46.1969 10.63 50.2C9.4 52.56 8.05999 55.76 7.36999 57.45C6.82999 58.78 6.24998 60.5 5.72998 62.01C5.54998 62.57 5.36 63.1 5.19 63.59C4.26033 66.3764 3.52193 69.223 2.97998 72.11C2.17243 76.5569 1.59834 81.0431 1.26001 85.55C1.03572 88.8368 1.05242 92.1357 1.30999 95.42C1.58999 98.37 2.06998 102.68 2.60998 105.94C2.84998 107.41 3.28 109.15 3.69 110.84C3.88 111.58 4.05001 112.3 4.20001 112.95C4.35001 113.6 4.56 114.29 4.88 115.29C4.64798 113.613 4.53106 111.923 4.53003 110.23C4.53003 83.1 33.1 52.07 73.93 37.16L74.16 37.8C33.6 52.61 5.15997 83.36 5.15997 110.2C5.14868 113.626 5.63716 117.035 6.60998 120.32C6.80998 120.99 7.03002 121.66 7.27002 122.32L7.71002 123.47H7.83001Z" stroke="#A0A0A0" stroke-width="0.1" stroke-miterlimit="10"/>
</g>
<path d="M7.53001 123.6C9.42383 128.008 11.5914 132.293 14.02 136.43C15.72 139.12 18.16 142.58 20.08 145.12C21.32 146.76 23.15 148.82 24.55 150.34C28.2577 154.318 32.3138 157.955 36.67 161.21C38.74 162.78 41.67 164.67 43.88 166.04C45.5 167.04 47.74 168.22 49.42 169.11C53.531 171.186 57.7931 172.947 62.17 174.38C66.2254 175.696 70.3692 176.721 74.57 177.45C82.3666 178.814 90.3116 179.12 98.19 178.36C101.49 178.02 105.9 177.22 109.19 176.59C110.87 176.26 113.05 175.59 114.7 175.15C117.69 174.37 119.04 173.83 125.51 171.21C132.541 168.102 139.145 164.106 145.16 159.32C148.293 156.824 151.247 154.111 154 151.2C156.907 148.155 159.581 144.895 162 141.45C172.422 126.85 178.178 109.435 178.51 91.5C178.519 86.8189 178.221 82.1423 177.62 77.5C176.966 73.2049 176.038 68.9562 174.84 64.78C173.993 61.9402 172.998 59.1464 171.86 56.41C170.11 52.47 167.51 47.33 165.38 43.58C163.532 40.5669 161.509 37.6652 159.32 34.89C158.07 33.24 156.23 31.19 154.85 29.67C145.974 20.0637 135.075 12.5493 122.94 7.67002C118.919 6.02106 114.776 4.68379 110.55 3.67002C106.604 2.70325 102.593 2.01819 98.55 1.62001C94.6929 1.23268 90.8148 1.09573 86.94 1.21002C85.22 1.32002 82.92 1.36002 81.22 1.58002C77.92 2.00002 73.65 2.62002 70.22 3.35002C66.79 4.08002 66.22 4.27002 59.22 6.58002C57.58 7.12002 55.47 8.08001 53.87 8.73001C50.3672 10.2426 46.9755 12.0003 43.72 13.99C40.4135 15.9926 37.2402 18.2072 34.22 20.62C31.0741 23.1016 28.1161 25.8123 25.37 28.73C22.4751 31.7858 19.8016 35.0441 17.37 38.48C14.7296 42.1353 12.3886 45.9979 10.37 50.03C9.25998 52.14 7.99996 55.07 7.09996 57.29C6.35996 59.1 5.55996 61.59 4.90996 63.44C3.98059 66.2409 3.23898 69.1005 2.68999 72C1.89342 76.4842 1.33266 81.0071 1.01 85.55C0.784835 88.8536 0.804888 92.1694 1.06999 95.47C1.36999 98.64 1.84998 102.87 2.36998 106.02C2.71998 108.13 3.48001 110.91 3.96001 113.02C4.37001 114.79 6.27002 120.42 7.53001 123.6ZM7.53001 123.6C7.11002 122.6 6.73996 121.5 6.40996 120.42M7.53001 123.6C7.11002 122.56 6.73996 121.5 6.40996 120.42M6.40996 120.42C-2.19004 91.42 28.2 54.25 74.14 37.48C28.2 54.25 -2.19004 91.48 6.40996 120.42Z" stroke="#A0A0A0" stroke-width="0.1" stroke-miterlimit="10"/>
<mask id="mask1_1_1588" style="mask-type:luminance" maskUnits="userSpaceOnUse" x="0" y="1" width="179" height="178">
<path d="M171.88 56.38C174.25 62.38 174.25 62.38 176.61 71.78C177.308 74.8225 177.792 77.91 178.06 81.02C178.435 84.5001 178.585 88.0006 178.51 91.5C178.4 93.57 178.35 96.32 178.12 98.38C177.8 101.26 177.3 105.1 176.68 107.93C174.784 117.128 171.428 125.963 166.74 134.1C162.308 141.815 156.751 148.825 150.25 154.9C144.387 160.384 137.799 165.038 130.67 168.73C127.258 170.487 123.741 172.033 120.14 173.36C118.5 173.9 116.35 174.72 114.68 175.15C107.97 176.91 107.27 177.09 103.68 177.64C102.01 177.9 99.79 178.25 98.11 178.36C94.76 178.57 90.28 178.72 86.92 178.72C83.0677 178.583 79.2273 178.212 75.42 177.61C71.2301 176.939 67.0955 175.96 63.05 174.68C59.1791 173.42 55.383 171.941 51.68 170.25C47.0426 168.064 42.6027 165.481 38.41 162.53C34.164 159.556 30.1916 156.209 26.54 152.53C25.13 151.04 23.22 149.08 21.92 147.53C20.02 145.2 17.54 142.04 15.92 139.53C14.75 137.76 13.21 135.37 12.22 133.53C10.68 130.64 8.77999 126.7 7.47999 123.7C18.29 150.17 61.06 158.7 105.28 142.6C61.06 158.75 18.28 150.17 7.47999 123.7C6.73999 121.64 5.64001 118.93 5.00001 116.84C4.22001 114.31 3.4 110.84 2.75001 108.29C2.06022 105.25 1.5791 102.166 1.31 99.06C0.935569 95.5766 0.785247 92.0727 0.85999 88.57C0.96999 86.51 1.02 83.75 1.24 81.7C1.56 78.82 2.06001 74.97 2.69001 72.14C4.58361 62.9462 7.93597 54.1146 12.62 45.98C14.9192 41.9953 17.5131 38.188 20.38 34.59C23.0648 31.2486 25.982 28.1008 29.11 25.17C34.9759 19.6875 41.5677 15.0373 48.7 11.35C52.1113 9.59126 55.628 8.04498 59.23 6.72C60.87 6.18 63.02 5.35 64.68 4.92C72.1 2.98 72.1 2.97999 75.68 2.42999C77.34 2.16999 79.57 1.82 81.25 1.72C84.6 1.5 89.07 1.35001 92.43 1.35001C96.2823 1.48615 100.123 1.85684 103.93 2.46001C108.12 3.12931 112.255 4.10865 116.3 5.39C120.174 6.65173 123.973 8.13075 127.68 9.82001C132.312 12.0097 136.749 14.5925 140.94 17.54C145.188 20.5155 149.163 23.8619 152.82 27.54C154.22 29.03 156.13 30.99 157.43 32.54C159.33 34.87 161.81 38.03 163.43 40.54C166.782 45.5163 169.614 50.8243 171.88 56.38Z" fill="white"/>
</mask>
<g mask="url(#mask1_1_1588)">
<path d="M78.38 161.93C45.66 161.93 16.7 146.61 6.05002 120.55C-2.60998 91.39 27.86 54 74 37.16L74.31 37.05L74.43 37.35C89.03 73.1 107.91 125.74 116.51 154.71L116.6 155.02L116.3 155.12C104.156 159.59 91.321 161.895 78.38 161.93ZM73.9001 37.93C28.2901 54.7 -1.83997 91.62 6.69003 120.34C21.17 155.81 70.05 171.16 115.69 154.62C107.13 125.67 88.4201 73.51 73.9001 37.91V37.93Z" stroke="#A0A0A0" stroke-width="0.1" stroke-miterlimit="10"/>
<path d="M72.06 125.65C43.8 125.65 18.77 112.42 9.58002 89.9L10.2 89.64C22.74 120.33 65.06 133.56 104.55 119.14L104.78 119.78C94.2991 123.63 83.2255 125.616 72.06 125.65Z" stroke="#A0A0A0" stroke-width="0.1" stroke-miterlimit="10"/>
<path d="M30.77 149.08C22.14 120.02 41.47 69.85 73.85 37.24L74.33 37.72C42.1 70.17 22.85 120 31.42 148.88L30.77 149.08Z" stroke="#A0A0A0" stroke-width="0.1" stroke-miterlimit="10"/>
<path d="M70.16 161.41C61.55 132.41 63.16 76.77 73.76 37.41L74.41 37.59C63.84 76.87 62.23 132.34 70.81 161.24L70.16 161.41Z" stroke="#A0A0A0" stroke-width="0.1" stroke-miterlimit="10"/>
<path d="M115.93 155.25L115.83 154.9C107.23 125.95 88.37 73.33 73.78 37.61L73.64 37.28L73.97 37.16C103.14 26.5 132.54 26.16 152.61 36.26C163.24 41.61 170.41 49.63 173.33 59.46C179.33 74.24 178.84 90.46 171.82 106.35C162.27 127.95 142.02 145.72 116.27 155.12L115.93 155.25ZM74.53 37.68C89.05 73.27 107.75 125.42 116.38 154.37C141.79 144.99 161.77 127.37 171.2 106.08C178.15 90.37 178.67 74.32 172.69 59.69C169.81 50.01 162.77 42.13 152.3 36.87C132.48 26.9 103.43 27.2 74.53 37.68Z" stroke="#A0A0A0" stroke-width="0.1" stroke-miterlimit="10"/>
<path d="M104.78 119.78L104.55 119.14C126.62 111.08 143.97 95.86 152.14 77.38C158.14 63.82 158.59 49.99 153.43 37.38L154.05 37.13C159.28 49.93 158.83 63.95 152.76 77.67C144.51 96.3 127 111.65 104.78 119.78Z" stroke="#A0A0A0" stroke-width="0.1" stroke-miterlimit="10"/>
<path d="M154.27 130.7C145.69 101.81 109.64 60.12 73.91 37.76L74.27 37.19C110.12 59.62 146.27 101.48 154.92 130.5L154.27 130.7Z" stroke="#A0A0A0" stroke-width="0.1" stroke-miterlimit="10"/>
<path d="M174.66 96.53C166.1 67.7 120.97 41.36 74.06 37.81L74.11 37.14C121.28 40.7 166.68 67.26 175.31 96.33L174.66 96.53Z" stroke="#A0A0A0" stroke-width="0.1" stroke-miterlimit="10"/>
<path d="M172.69 59.69C170.582 54.5434 167.728 49.7352 164.22 45.42C160.749 41.9279 156.721 39.0384 152.3 36.87C132.4 26.87 103.2 27.2 74.2 37.8L73.9001 37.91L73.7801 37.61C71.5301 32.11 69.63 27.61 68.01 23.89C66.45 24.39 64.89 24.9233 63.33 25.49L62.99 25.61L62.89 25.27C57.43 6.88999 58.57 6.48999 59.12 6.26999C59.67 6.04999 60.82 5.69998 68.39 23.04C106.12 11.31 145.1 20.77 164.71 44.92C168.722 48.9826 171.681 53.9636 173.33 59.43L172.69 59.69ZM117.9 28.93C130.9 28.93 142.9 31.37 152.61 36.26C155.337 37.6222 157.928 39.2394 160.35 41.09C139.97 20.36 103.8 12.8 68.66 23.69C70.25 27.33 72.1101 31.74 74.2801 37.05C88.2438 31.8512 103.001 29.1041 117.9 28.93ZM59.36 6.92998C59.16 7.38998 59.09 10.02 63.43 24.7C64.87 24.18 66.31 23.7 67.75 23.24C61.52 8.99999 59.77 7.17999 59.36 6.99999V6.92998Z" stroke="#A0A0A0" stroke-width="0.1" stroke-miterlimit="10"/>
<path d="M153.43 37.36C140.89 6.68001 98.58 -6.56 59.08 7.87L58.85 7.23C98.69 -7.32 141.39 6.09001 154.06 37.11L153.43 37.36Z" stroke="#A0A0A0" stroke-width="0.1" stroke-miterlimit="10"/>
<path d="M74.33 37.72L73.85 37.24C93.68 17.24 114.75 7.66999 130.16 11.55C139.16 13.81 145.5 20.5 148.59 30.9L147.94 31.1C144.94 20.93 138.72 14.4 130 12.21C114.78 8.36999 94 17.92 74.33 37.72Z" stroke="#A0A0A0" stroke-width="0.1" stroke-miterlimit="10"/>
<path d="M74.41 37.57L73.76 37.39C79.94 14.44 87.98 1.20999 95.83 1.10999H95.92C101.22 1.10999 105.81 7.10999 109.2 18.57L108.55 18.76C105.25 7.64998 100.89 1.75998 95.92 1.75998H95.84C88.43 1.87998 80.42 15.26 74.41 37.57Z" stroke="#A0A0A0" stroke-width="0.1" stroke-miterlimit="10"/>
<path d="M6.04998 120.55C0.0499811 105.74 0.519981 89.55 7.54998 73.62C17.06 52.12 37.19 34.4 62.8 24.96C57.44 6.89 58.57 6.48999 59.12 6.29999C59.67 6.10999 61.41 5.53999 74.4 37.3L74.53 37.63L74.2 37.75C28.43 54.46 -1.86 91.48 6.69 120.27L6.04998 120.55ZM59.36 6.99999C59.15 7.46999 59.09 10.13 63.54 25.12L63.63 25.42L63.33 25.53C37.75 34.87 17.64 52.53 8.16998 73.94C1.98998 87.94 0.889976 102.13 4.91998 115.4C0.999976 87.23 30.39 53.23 73.64 37.32C62.54 10.12 59.88 7.22999 59.36 6.99999Z" stroke="#A0A0A0" stroke-width="0.1" stroke-miterlimit="10"/>
<path d="M9.58003 89.9C4.35003 77.1 4.8 63.08 10.87 49.36C19.12 30.71 36.61 15.36 58.87 7.22998L59.1 7.86998C37.03 15.93 19.68 31.15 11.51 49.63C5.51002 63.18 5.06998 77.02 10.22 89.63L9.58003 89.9Z" stroke="#A0A0A0" stroke-width="0.1" stroke-miterlimit="10"/>
<path d="M24.45 49.48C21.14 38.32 22.23 30.27 27.6 26.19C35.81 19.93 53.26 24.05 74.27 37.19L73.91 37.76C53.15 24.76 35.99 20.65 28.01 26.76C22.88 30.66 21.87 38.46 25.1 49.32L24.45 49.48Z" stroke="#A0A0A0" stroke-width="0.1" stroke-miterlimit="10"/>
<path d="M4.04997 83.65C1.04997 73.49 2.79999 63.97 9.13999 56.11C20.51 42.02 44.78 34.92 74.14 37.11L74.09 37.78C45.01 35.59 20.92 42.58 9.69999 56.5C3.49999 64.18 1.77999 73.5 4.69999 83.42L4.04997 83.65Z" stroke="#A0A0A0" stroke-width="0.1" stroke-miterlimit="10"/>
<path d="M120.06 173.72C119.43 173.72 117.71 172.35 110.97 156.91C73.23 168.64 34.24 159.17 14.64 135.01C10.6309 130.953 7.6779 125.974 6.03998 120.51L6.67999 120.29C8.78313 125.428 11.6302 130.23 15.13 134.54C18.5991 138.041 22.6319 140.935 27.06 143.1C46.97 153.1 76.16 152.77 105.16 142.18L105.47 142.07L105.59 142.37C107.84 147.87 109.74 152.37 111.35 156.09C112.917 155.59 114.48 155.057 116.04 154.49L116.38 154.37L116.48 154.71C121.93 173.08 120.79 173.48 120.25 173.71C120.188 173.725 120.123 173.728 120.06 173.72ZM111.62 156.72C117.84 170.96 119.62 172.81 120.01 173.02C120.21 172.56 120.28 169.93 115.93 155.26C114.5 155.77 113.06 156.25 111.62 156.71V156.72ZM19 138.87C39.38 159.61 75.57 167.18 110.71 156.29C109.13 152.65 107.27 148.24 105.1 142.93C76.03 153.48 46.77 153.77 26.77 143.71C24.0337 142.344 21.4321 140.724 19 138.87Z" stroke="#A0A0A0" stroke-width="0.1" stroke-miterlimit="10"/>
<path d="M87.79 178.61C59.53 178.61 34.5 165.38 25.31 142.86L25.93 142.61C38.47 173.3 80.79 186.53 120.28 172.11L120.51 172.74C110.03 176.594 98.9559 178.581 87.79 178.61Z" stroke="#A0A0A0" stroke-width="0.1" stroke-miterlimit="10"/>
<path d="M97.45 171.76C80.88 171.76 66.21 164 60.81 150.76L61.44 150.51C68.74 168.37 93.37 176.06 116.38 167.66L116.61 168.29C110.476 170.56 103.991 171.734 97.45 171.76Z" stroke="#A0A0A0" stroke-width="0.1" stroke-miterlimit="10"/>
<path d="M56.33 169.27C53.9274 169.281 51.5326 168.996 49.2 168.42C40.2 166.16 33.87 159.47 30.77 149.08L31.42 148.88C34.42 159.04 40.65 165.57 49.42 167.77C64.6 171.59 85.42 162.06 105.09 142.26L105.57 142.74C88.6 159.78 70.78 169.27 56.33 169.27Z" stroke="#A0A0A0" stroke-width="0.1" stroke-miterlimit="10"/>
<path d="M83.44 178.86C78.14 178.86 73.56 172.86 70.16 161.41L70.81 161.22C74.11 172.32 78.48 178.22 83.44 178.22H83.52C90.94 178.13 98.95 164.76 104.95 142.45L105.61 142.63C99.43 165.63 91.38 178.8 83.53 178.9L83.44 178.86Z" stroke="#A0A0A0" stroke-width="0.1" stroke-miterlimit="10"/>
<path d="M120.06 173.72C119.28 173.72 116.79 171.58 104.96 142.63L104.83 142.3L105.16 142.18C150.94 125.47 181.23 88.44 172.68 59.66L173.31 59.43C179.36 74.24 178.84 90.43 171.82 106.35C162.3 127.86 142.18 145.58 116.57 155.02C121.92 173.09 120.79 173.48 120.25 173.68C120.19 173.705 120.125 173.718 120.06 173.72ZM105.72 142.72C116.83 169.88 119.48 172.72 120.01 173.03C120.21 172.57 120.28 169.9 115.83 154.92L115.74 154.62L116.04 154.51C141.62 145.17 161.72 127.51 171.2 106.1C177.38 92.1 178.47 77.91 174.44 64.64C178.37 92.79 149 126.79 105.72 142.7V142.72Z" stroke="#A0A0A0" stroke-width="0.1" stroke-miterlimit="10"/>
<path d="M120.51 172.74L120.28 172.11C142.35 164.05 159.7 148.83 167.87 130.34C173.87 116.79 174.32 102.95 169.16 90.34L169.78 90.08C175.01 102.88 174.56 116.9 168.49 130.63C160.24 149.27 142.76 164.62 120.51 172.74Z" stroke="#A0A0A0" stroke-width="0.1" stroke-miterlimit="10"/>
<path d="M116.61 168.32L116.38 167.69C129.24 163 139.38 154.13 144.1 143.37C147.59 135.49 147.85 127.44 144.85 120.1L145.48 119.85C148.55 127.36 148.28 135.59 144.72 143.64C139.88 154.57 129.64 163.57 116.61 168.32Z" stroke="#A0A0A0" stroke-width="0.1" stroke-miterlimit="10"/>
<path d="M141.72 156.65C132.47 156.65 119.64 151.88 105.1 142.79L105.46 142.21C126.21 155.21 143.37 159.33 151.36 153.21C156.48 149.31 157.49 141.51 154.27 130.66L154.92 130.46C158.23 141.61 157.14 149.66 151.76 153.75C149.23 155.71 145.83 156.65 141.72 156.65Z" stroke="#A0A0A0" stroke-width="0.1" stroke-miterlimit="10"/>
<path d="M115.63 143.24C112.26 143.24 108.79 143.11 105.25 142.84V142.16C134.35 144.36 158.42 137.36 169.65 123.44C175.84 115.76 177.56 106.44 174.65 96.53L175.3 96.33C178.3 106.48 176.56 116 170.21 123.86C160.23 136.26 140.24 143.24 115.63 143.24Z" stroke="#A0A0A0" stroke-width="0.1" stroke-miterlimit="10"/>
<path d="M105.09 142.93L104.96 142.63C90.36 106.87 71.49 54.22 62.89 25.27L62.8 24.96L63.1 24.85C109.2 8.01 158.65 23.53 173.31 59.43C182 88.59 151.5 126 105.39 142.82L105.09 142.93ZM63.63 25.38C72.23 54.3 90.94 106.46 105.47 142.07C151.07 125.3 181.2 88.39 172.68 59.67C158.18 24.18 109.31 8.84 63.63 25.38Z" stroke="#A0A0A0" stroke-width="0.1" stroke-miterlimit="10"/>
<path d="M169.16 90.33C156.62 59.64 114.31 46.41 74.81 60.83L74.58 60.2C114.42 45.65 157.12 59.06 169.79 90.07L169.16 90.33Z" stroke="#A0A0A0" stroke-width="0.1" stroke-miterlimit="10"/>
<path d="M144.85 120.1C137.55 102.24 112.91 94.55 89.91 102.95L89.68 102.31C113.02 93.79 138.05 101.66 145.48 119.85L144.85 120.1Z" stroke="#A0A0A0" stroke-width="0.1" stroke-miterlimit="10"/>
<path d="M105.52 142.74L105.04 142.26C137.26 109.81 156.51 59.94 147.94 31.1L148.59 30.9C157.22 60 137.9 110.13 105.52 142.74Z" stroke="#A0A0A0" stroke-width="0.1" stroke-miterlimit="10"/>
<path d="M105.61 142.59L104.95 142.41C115.52 103.13 117.14 47.66 108.55 18.76L109.2 18.57C117.82 47.57 116.2 103.21 105.61 142.59Z" stroke="#A0A0A0" stroke-width="0.1" stroke-miterlimit="10"/>
<path d="M61.47 151.05C48.47 151.05 36.47 148.61 26.76 143.71C16.12 138.36 8.95999 130.34 6.03999 120.51C0.0399914 105.74 0.520001 89.51 7.55 73.62C17.1 52.04 37.34 34.26 63.1 24.85L63.43 24.73L63.54 25.08C72.13 54 91 106.63 105.59 142.37L105.72 142.7L105.39 142.82C91.3374 148.087 76.4762 150.872 61.47 151.05ZM63 25.61C37.58 34.99 17.61 52.61 8.18001 73.9C1.23001 89.61 0.710016 105.66 6.69002 120.29C9.56002 129.96 16.61 137.84 27.07 143.1C46.9 153.1 75.95 152.78 104.84 142.3C90.31 106.69 71.61 54.55 63 25.61Z" stroke="#A0A0A0" stroke-width="0.1" stroke-miterlimit="10"/>
<path d="M25.31 142.86C20.08 130.07 20.53 116.05 26.6 102.32C34.85 83.67 52.34 68.32 74.6 60.2L74.83 60.83C52.76 68.89 35.41 84.11 27.24 102.59C21.24 116.15 20.8 129.99 25.95 142.59L25.31 142.86Z" stroke="#A0A0A0" stroke-width="0.1" stroke-miterlimit="10"/>
<path d="M60.81 150.79C57.75 143.28 58.01 135.05 61.57 127C66.41 116.07 76.65 107.07 89.68 102.31L89.91 102.95C77.05 107.64 66.91 116.51 62.19 127.27C58.7 135.15 58.44 143.2 61.44 150.54L60.81 150.79Z" stroke="#A0A0A0" stroke-width="0.1" stroke-miterlimit="10"/>
<path d="M105.1 142.79C69.25 120.36 33.1 78.5 24.45 49.48L25.1 49.28C33.68 78.17 69.72 119.86 105.46 142.21L105.1 142.79Z" stroke="#A0A0A0" stroke-width="0.1" stroke-miterlimit="10"/>
<path d="M105.25 142.84C58.09 139.28 12.69 112.72 4.04999 83.65L4.70001 83.45C13.27 112.29 58.39 138.62 105.3 142.16L105.25 142.84Z" stroke="#A0A0A0" stroke-width="0.1" stroke-miterlimit="10"/>
<path d="M87 179.06C83.1223 178.937 79.2555 178.583 75.42 178C71.2113 177.309 67.0599 176.307 63 175C59.1176 173.728 55.3085 172.242 51.59 170.55C46.9348 168.35 42.4753 165.757 38.26 162.8C33.9959 159.8 30.0069 156.426 26.34 152.72L25.63 151.97C24.3 150.58 22.81 148.97 21.71 147.67C20.24 145.87 17.4999 142.44 15.6599 139.67C13.9799 137.14 12.73 135.09 11.94 133.6C10.7 131.27 9.23995 128.28 8.03995 125.65C7.73995 125.02 7.44997 124.38 7.18997 123.73C6.92997 123.08 6.66998 122.33 6.37998 121.57C5.76998 119.95 5.12998 118.28 4.69998 116.85C4.03998 114.71 3.35998 111.98 2.75998 109.57L2.43997 108.28C1.75396 105.222 1.27289 102.122 0.999971 99C0.610279 95.501 0.459917 91.9795 0.549959 88.46C0.549959 87.88 0.609976 87.23 0.629976 86.57C0.699976 84.92 0.779973 83.05 0.939973 81.57C1.24997 78.81 1.73999 74.91 2.38999 71.98C4.29642 62.7479 7.67272 53.8817 12.39 45.72C16.8347 37.9738 22.4131 30.9359 28.94 24.84C34.828 19.3291 41.4468 14.6552 48.61 10.95C52.0344 9.18729 55.5645 7.63767 59.18 6.31L60.86 5.73C62.16 5.27 63.5099 4.8 64.6599 4.5C72.0899 2.56 72.0899 2.55999 75.6599 2.00999C77.3399 1.73999 79.57 1.39999 81.26 1.28999C84.64 1.06999 89.08 0.929993 92.34 0.929993H92.46C96.3251 1.04797 100.179 1.40533 104 2C108.193 2.70136 112.331 3.70396 116.38 5C120.267 6.26876 124.079 7.75443 127.8 9.45C132.459 11.6376 136.916 14.2309 141.12 17.2C145.373 20.1842 149.349 23.5444 153 27.24L153.73 28C155.04 29.39 156.54 30.95 157.63 32.29C159.11 34.1 161.86 37.55 163.69 40.29C167.046 45.3063 169.884 50.6503 172.16 56.24C174.53 62.24 174.53 62.24 176.9 71.68C177.592 74.7405 178.076 77.8442 178.35 80.97C178.739 84.4657 178.889 87.9839 178.8 91.5C178.8 92.11 178.75 92.78 178.72 93.5C178.65 95.12 178.58 96.97 178.42 98.42C178.11 101.2 177.6 105.12 176.97 108.01C175.055 117.24 171.68 126.105 166.97 134.27C164.664 138.27 162.06 142.091 159.18 145.7C156.488 149.057 153.557 152.215 150.41 155.15C144.542 160.643 137.947 165.303 130.81 169C127.383 170.761 123.853 172.313 120.24 173.65L118.57 174.22C117.27 174.68 115.92 175.15 114.76 175.45H114.67C111.092 176.535 107.448 177.386 103.76 178H103.67C102.05 178.25 99.8299 178.6 98.1599 178.71C94.7499 178.91 90.3 179.06 87 179.06ZM11.53 131.45C11.85 132.09 12.1699 132.7 12.4699 133.27C13.2599 134.75 14.4699 136.77 16.1599 139.27C17.9799 142.03 20.7099 145.44 22.1599 147.27C23.2399 148.59 24.73 150.16 26.05 151.54L26.76 152.29C34.0014 159.59 42.4618 165.57 51.76 169.96C55.4488 171.649 59.2318 173.125 63.09 174.38C67.1203 175.651 71.2378 176.627 75.4099 177.3C79.201 177.897 83.0246 178.264 86.86 178.4H87C90.24 178.4 94.68 178.26 98.08 178.04C99.71 177.94 101.92 177.59 103.53 177.34H103.61C107.277 176.759 110.901 175.938 114.46 174.88H114.55C115.68 174.58 117.02 174.11 118.31 173.66L120 173C123.589 171.678 127.092 170.135 130.49 168.38C137.591 164.718 144.156 160.098 150 154.65C153.121 151.736 156.028 148.601 158.7 145.27C161.558 141.689 164.142 137.899 166.43 133.93C171.096 125.822 174.438 117.021 176.33 107.86C176.96 105 177.46 101.1 177.77 98.34C177.92 96.91 178 95.08 178.06 93.46C178.06 92.77 178.12 92.1 178.15 91.46C178.234 87.9738 178.084 84.486 177.7 81.02C177.426 77.9318 176.948 74.8651 176.27 71.84C173.9 62.4 173.9 62.4 171.55 56.47C169.285 50.9277 166.467 45.6276 163.14 40.65C161.34 37.92 158.6 34.49 157.14 32.65C156.06 31.33 154.58 29.77 153.27 28.4L152.54 27.64C148.911 23.955 144.955 20.6078 140.72 17.64C136.549 14.7161 132.133 12.1599 127.52 10C123.825 8.31609 120.04 6.84045 116.18 5.58C112.15 4.30747 108.032 3.33153 103.86 2.66C100.069 2.06186 96.2454 1.69451 92.4099 1.56C89.1599 1.56 84.67 1.7 81.25 1.92C79.6 2.03 77.38 2.37 75.76 2.63C72.17 3.19 72.17 3.19 64.76 5.11C63.63 5.41 62.3 5.88 61.01 6.33L59.32 6.91C55.7428 8.22869 52.2496 9.76489 48.86 11.51C41.7484 15.1852 35.1767 19.8221 29.33 25.29C22.861 31.3393 17.3301 38.3194 12.92 46C8.2374 54.1129 4.8881 62.9251 2.99997 72.1C2.35997 75.02 1.85997 78.89 1.55997 81.63C1.39997 83.09 1.31998 84.95 1.25998 86.58C1.25998 87.25 1.25996 87.9 1.17996 88.49C1.09098 91.9759 1.23799 95.4639 1.61997 98.93C1.89701 102.018 2.37807 105.085 3.05997 108.11L3.37998 109.4C3.96998 111.8 4.64996 114.52 5.29996 116.64C5.72996 118.05 6.36995 119.71 6.97995 121.32L7.76999 123.47C8.02999 124.07 8.30996 124.7 8.60996 125.35C20.61 150.27 62.22 157.75 104.83 142.3H104.89L105.05 142.24L105.28 142.88C65.83 157.27 27.06 152 11.57 131.45H11.53Z" stroke="#A0A0A0" stroke-width="0.1" stroke-miterlimit="10"/>
</g>
<path d="M7.47999 123.7C8.77999 126.7 10.68 130.64 12.22 133.53C13.21 135.37 14.75 137.76 15.92 139.53C17.54 142.04 20.02 145.2 21.92 147.53C23.22 149.08 25.13 151.04 26.54 152.53C30.1916 156.209 34.164 159.556 38.41 162.53C42.6027 165.481 47.0426 168.064 51.68 170.25C55.383 171.941 59.1791 173.42 63.05 174.68C67.0955 175.96 71.2301 176.94 75.42 177.61C79.2273 178.212 83.0677 178.583 86.92 178.72C90.28 178.72 94.76 178.57 98.11 178.36C99.79 178.25 102.01 177.9 103.68 177.64C107.27 177.09 107.97 176.91 114.68 175.15C116.35 174.72 118.5 173.9 120.14 173.36C123.741 172.033 127.258 170.487 130.67 168.73C137.799 165.038 144.387 160.384 150.25 154.9C156.751 148.825 162.308 141.815 166.74 134.1C171.428 125.963 174.784 117.128 176.68 107.93C177.3 105.1 177.8 101.26 178.12 98.38C178.35 96.32 178.4 93.57 178.51 91.5C178.585 88.0006 178.435 84.5001 178.06 81.02C177.792 77.91 177.308 74.8225 176.61 71.78C174.25 62.38 174.25 62.38 171.88 56.38C169.614 50.8243 166.782 45.5163 163.43 40.54C161.81 38.03 159.33 34.87 157.43 32.54C156.13 30.99 154.22 29.03 152.82 27.54C149.163 23.8619 145.188 20.5155 140.94 17.54C136.749 14.5925 132.312 12.0097 127.68 9.82001C123.973 8.13075 120.174 6.65173 116.3 5.39C112.255 4.10865 108.12 3.12931 103.93 2.46001C100.123 1.85684 96.2823 1.48615 92.43 1.35001C89.07 1.35001 84.6 1.5 81.25 1.72C79.57 1.82 77.34 2.16999 75.68 2.42999C72.1 2.97999 72.1 2.98 64.68 4.92C63.02 5.35 60.87 6.18 59.23 6.72C55.628 8.04498 52.1113 9.59126 48.7 11.35C41.5677 15.0373 34.9759 19.6875 29.11 25.17C25.982 28.1008 23.0648 31.2486 20.38 34.59C17.5131 38.188 14.9192 41.9953 12.62 45.98C7.93597 54.1146 4.58361 62.9462 2.69001 72.14C2.06001 74.97 1.56 78.82 1.24 81.7C1.02 83.75 0.96999 86.51 0.85999 88.57C0.785247 92.0727 0.935569 95.5766 1.31 99.06C1.5791 102.166 2.06022 105.25 2.75001 108.29C3.4 110.84 4.22001 114.31 5.00001 116.84C5.64001 118.93 6.73999 121.64 7.47999 123.7ZM7.47999 123.7C18.29 150.17 61.06 158.7 105.28 142.6C61.06 158.75 18.28 150.17 7.47999 123.7Z" stroke="#A0A0A0" stroke-width="0.1" stroke-miterlimit="10"/>
<mask id="mask2_1_1588" style="mask-type:luminance" maskUnits="userSpaceOnUse" x="0" y="0" width="180" height="180">
<path d="M6.87002 123.85C17.77 150.53 60.8701 159.17 105.4 142.85C60.8501 159.12 17.77 150.48 6.87002 123.85C5.60002 120.65 3.69006 114.97 3.28006 113.19C2.79006 111.07 2.02001 108.26 1.67001 106.11C1.15001 102.94 0.670013 98.68 0.360013 95.48C0.0946054 92.1527 0.0745536 88.8103 0.300015 85.48C0.631122 80.9303 1.19857 76.4008 2.00003 71.91C2.55787 68.9866 3.30953 66.1036 4.25003 63.28C4.90003 61.41 5.71004 58.91 6.45004 57.08C7.36004 54.85 8.62002 51.89 9.74002 49.76C11.7567 45.7045 14.0976 41.8185 16.74 38.14C19.2011 34.6708 21.9116 31.3854 24.85 28.31C27.6189 25.372 30.5967 22.6383 33.76 20.13C36.8046 17.705 40.0012 15.4771 43.33 13.46C46.6091 11.4575 50.0241 9.68647 53.55 8.16C55.17 7.51 57.29 6.54001 58.94 5.99001C65.94 3.67001 66.57 3.48001 69.94 2.74001C73.31 2.00001 77.7 1.38 81.05 0.949998C82.77 0.739998 85.05 0.699997 86.82 0.589997C90.7215 0.475824 94.6262 0.612777 98.51 1C106.948 1.85181 115.223 3.89199 123.09 7.06C127.475 8.81745 131.712 10.9242 135.76 13.36C138 14.73 140.9 16.69 143.03 18.23C144.64 19.4 146.66 21.14 148.21 22.39C161.106 33.5737 170.528 48.2182 175.36 64.59C176.561 68.801 177.5 73.0826 178.17 77.41C178.718 82.094 179.012 86.8042 179.05 91.52C179.074 94.8136 178.836 98.1039 178.34 101.36C178.01 103.36 177.65 106.08 177.21 108.07C176.64 110.69 175.81 114.16 174.97 116.7C173.525 121.354 171.688 125.876 169.48 130.22C167.35 134.48 166.89 135.22 162.48 141.84C160.033 145.32 157.322 148.606 154.37 151.67C151.597 154.601 148.62 157.331 145.46 159.84C139.405 164.677 132.75 168.711 125.66 171.84C120.375 174.143 114.888 175.954 109.27 177.25C105.55 178.1 105.41 178.11 98.12 179.04C96.4 179.26 94.12 179.38 92.35 179.41C79.9411 179.807 67.5864 177.603 56.08 172.94C53.6611 171.994 51.2944 170.919 48.99 169.72C45.61 167.88 41.19 165.23 37.99 163.1C33.6865 160.108 29.6694 156.723 25.99 152.99C22.0086 148.964 18.416 144.571 15.26 139.87C13.47 137.16 11.26 133.38 9.79001 130.51C8.88001 128.56 7.78002 125.84 6.87002 123.85Z" fill="white"/>
</mask>
<g mask="url(#mask2_1_1588)">
<path d="M120.28 174.34C119.66 174.34 117.93 172.97 111.13 157.41C73.13 169.21 33.88 159.7 14.13 135.41C10.0736 131.321 7.08571 126.297 5.42999 120.78L6.07001 120.55C8.19327 125.741 11.0709 130.59 14.61 134.94C18.1044 138.456 22.1599 141.366 26.61 143.55C46.67 153.64 76.09 153.29 105.29 142.63L105.6 142.51L105.72 142.82C107.98 148.35 109.89 152.89 111.52 156.62C113.1 156.12 114.673 155.583 116.24 155.01L116.58 154.89L116.68 155.23C122.18 173.75 121.04 174.15 120.49 174.34C120.421 174.353 120.349 174.353 120.28 174.34ZM111.78 157.2C118.06 171.58 119.78 173.43 120.24 173.64C120.44 173.18 120.52 170.55 116.13 155.73C114.71 156.25 113.26 156.74 111.78 157.2ZM18.48 139.2C39.01 160.1 75.48 167.72 110.86 156.74C109.26 153.07 107.39 148.64 105.21 143.29C75.93 153.91 46.45 154.21 26.3 144.08C23.5449 142.72 20.9263 141.099 18.48 139.24V139.2Z" stroke="#A0A0A0" stroke-width="0.1" stroke-miterlimit="10"/>
<path d="M97.51 172.38C80.82 172.38 66.04 164.56 60.61 151.26L61.23 151C68.58 169 93.41 176.74 116.58 168.28L116.81 168.92C110.628 171.191 104.096 172.362 97.51 172.38Z" stroke="#A0A0A0" stroke-width="0.1" stroke-miterlimit="10"/>
<path d="M87.78 179.28C59.31 179.28 34.1 165.95 24.84 143.28L25.46 143.02C38.09 173.93 80.73 187.27 120.46 172.74L120.7 173.37C110.155 177.245 99.0141 179.245 87.78 179.28Z" stroke="#A0A0A0" stroke-width="0.1" stroke-miterlimit="10"/>
<path d="M56.09 169.87C53.6702 169.883 51.2582 169.595 48.91 169.01C39.91 166.74 33.46 160.01 30.34 149.51L30.99 149.32C33.99 159.56 40.29 166.14 49.08 168.32C64.4 172.17 85.36 162.57 105.16 142.63L105.64 143.1C88.59 160.31 70.65 169.87 56.09 169.87Z" stroke="#A0A0A0" stroke-width="0.1" stroke-miterlimit="10"/>
<path d="M83.4 179.53C78.06 179.53 73.4 173.45 70.02 161.94L70.67 161.75C74 172.94 78.39 178.85 83.4 178.85H83.48C90.96 178.76 99.03 165.28 105.07 142.85L105.72 143.03C99.5 166.15 91.4 179.47 83.49 179.57L83.4 179.53Z" stroke="#A0A0A0" stroke-width="0.1" stroke-miterlimit="10"/>
<path d="M120.28 174.34C119.5 174.34 117 172.2 105.09 143.03L104.95 142.71L105.28 142.59C151.4 125.74 181.91 88.44 173.28 59.43L173.92 59.21C180.01 74.13 179.49 90.47 172.41 106.48C162.83 128.14 142.55 145.99 116.75 155.48C122.15 173.7 121.01 174.1 120.47 174.29C120.41 174.317 120.346 174.334 120.28 174.34ZM105.84 143.1C117.05 170.51 119.71 173.38 120.24 173.64C120.44 173.18 120.52 170.51 116.03 155.38L115.94 155.08L116.23 154.97C142 145.56 162.23 127.78 171.8 106.2C178.03 92.12 179.13 77.78 175.06 64.4C179.05 92.79 149.43 127.07 105.84 143.1Z" stroke="#A0A0A0" stroke-width="0.1" stroke-miterlimit="10"/>
<path d="M116.81 168.92L116.58 168.28C129.58 163.55 139.72 154.62 144.51 143.78C148.03 135.83 148.29 127.78 145.27 120.34L145.89 120.08C148.98 127.65 148.72 135.94 145.13 144.08C140.26 155.06 129.94 164.12 116.81 168.92Z" stroke="#A0A0A0" stroke-width="0.1" stroke-miterlimit="10"/>
<path d="M120.75 173.36L120.51 172.73C142.75 164.61 160.22 149.27 168.51 130.65C174.51 117 175 103.06 169.81 90.34L170.43 90.09C175.69 102.98 175.24 117.09 169.13 130.93C160.77 149.71 143.15 165.18 120.75 173.36Z" stroke="#A0A0A0" stroke-width="0.1" stroke-miterlimit="10"/>
<path d="M142.11 157.16C132.8 157.16 119.87 152.35 105.22 143.16L105.58 142.59C126.49 155.67 143.77 159.83 151.81 153.7C157 149.8 158 141.94 154.75 131L155.4 130.8C158.73 142.04 157.64 150.15 152.22 154.27C149.68 156.21 146.25 157.16 142.11 157.16Z" stroke="#A0A0A0" stroke-width="0.1" stroke-miterlimit="10"/>
<path d="M115.84 143.64C112.427 143.64 108.937 143.507 105.37 143.24V142.57C134.67 144.78 158.93 137.73 170.24 123.71C176.49 115.96 178.24 106.58 175.24 96.57L175.89 96.38C178.89 106.61 177.16 116.21 170.77 124.13C160.75 136.61 140.62 143.64 115.84 143.64Z" stroke="#A0A0A0" stroke-width="0.1" stroke-miterlimit="10"/>
<path d="M105.21 143.33L105.09 143.03C90.38 107.03 71.36 53.97 62.69 24.79L62.6 24.48L62.9 24.38C109.35 7.38002 159.16 23.04 173.9 59.21C182.63 88.58 151.9 126.21 105.48 143.21L105.21 143.33ZM63.43 24.9C72.11 54.05 90.96 106.61 105.59 142.47C151.53 125.58 181.89 88.38 173.29 59.47C158.7 23.7 109.46 8.24001 63.43 24.9Z" stroke="#A0A0A0" stroke-width="0.1" stroke-miterlimit="10"/>
<path d="M145.27 120.34C137.92 102.34 113.09 94.59 89.92 103.05L89.68 102.42C113.19 93.84 138.41 101.76 145.89 120.08L145.27 120.34Z" stroke="#A0A0A0" stroke-width="0.1" stroke-miterlimit="10"/>
<path d="M169.76 90.34C157.13 59.43 114.48 46.1 74.7 60.62L74.47 59.99C114.6 45.33 157.62 58.84 170.38 90.09L169.76 90.34Z" stroke="#A0A0A0" stroke-width="0.1" stroke-miterlimit="10"/>
<path d="M105.64 143.14L105.16 142.67C137.62 109.98 157.01 59.73 148.37 30.67L149.02 30.48C157.72 59.75 138.26 110.3 105.64 143.14Z" stroke="#A0A0A0" stroke-width="0.1" stroke-miterlimit="10"/>
<path d="M105.72 143L105.07 142.82C115.72 103.26 117.35 47.37 108.7 18.24L109.35 18.05C118 47.27 116.4 103.32 105.72 143Z" stroke="#A0A0A0" stroke-width="0.1" stroke-miterlimit="10"/>
<path d="M61.27 151.51C48.14 151.51 36.11 149.05 26.27 144.12C15.55 138.73 8.34003 130.64 5.39003 120.74C-0.689973 105.85 -0.170015 89.51 6.90999 73.5C16.53 51.75 36.91 33.85 62.91 24.38L63.25 24.25L63.35 24.6C72 53.76 91 106.78 105.71 142.78L105.84 143.1L105.51 143.22C91.3547 148.525 76.3855 151.33 61.27 151.51ZM62.79 25.13C37.19 34.58 17.07 52.29 7.56001 73.77C0.560009 89.61 0.0400095 105.77 6.06001 120.51C8.96001 130.27 16.06 138.21 26.6 143.51C46.6 153.56 75.85 153.25 104.95 142.71C90.32 106.84 71.48 54.3 62.79 25.13Z" stroke="#A0A0A0" stroke-width="0.1" stroke-miterlimit="10"/>
<path d="M60.61 151.26C57.52 143.69 57.78 135.4 61.37 127.26C66.24 116.26 76.56 107.18 89.68 102.39L89.92 103.02C76.92 107.76 66.78 116.69 61.99 127.53C58.47 135.47 58.21 143.58 61.23 150.97L60.61 151.26Z" stroke="#A0A0A0" stroke-width="0.1" stroke-miterlimit="10"/>
<path d="M24.84 143.27C19.57 130.37 20.02 116.27 26.14 102.42C34.45 83.64 52.0699 68.17 74.4699 59.99L74.7 60.62C52.47 68.74 34.99 84.08 26.76 102.7C20.76 116.35 20.27 130.29 25.46 143.01L24.84 143.27Z" stroke="#A0A0A0" stroke-width="0.1" stroke-miterlimit="10"/>
<path d="M105.22 143.19C69.1 120.59 32.65 78.42 23.97 49.19L24.62 49C33.26 78.11 69.62 120.12 105.62 142.64L105.22 143.19Z" stroke="#A0A0A0" stroke-width="0.1" stroke-miterlimit="10"/>
<path d="M105.37 143.24C57.86 139.65 12.13 112.9 3.37 83.6L4.02002 83.4C12.65 112.46 58.12 139 105.37 142.57V143.24Z" stroke="#A0A0A0" stroke-width="0.1" stroke-miterlimit="10"/>
<path d="M78.3 162.46C45.3 162.46 16.16 147.03 5.44 120.77C-3.27 91.42 27.44 53.77 73.87 36.77L74.18 36.66L74.3 36.96C89 73 108 126 116.67 155.19L116.76 155.49L116.47 155.6C104.244 160.096 91.3261 162.418 78.3 162.46ZM6.07 120.53C20.68 156.28 69.91 171.74 115.94 155.08C107.26 125.93 88.41 73.37 73.78 37.5C27.84 54.4 -2.51 91.59 6.07 120.53Z" stroke="#A0A0A0" stroke-width="0.1" stroke-miterlimit="10"/>
<path d="M71.93 125.91C43.46 125.91 18.25 112.58 8.98999 89.91L9.60999 89.66C22.24 120.58 64.89 133.9 104.61 119.38L104.85 120.01C94.3048 123.882 83.1635 125.879 71.93 125.91Z" stroke="#A0A0A0" stroke-width="0.1" stroke-miterlimit="10"/>
<path d="M30.34 149.51C21.65 120.23 41.11 69.68 73.73 36.84L74.21 37.31C41.74 70 22.36 120.25 30.99 149.31L30.34 149.51Z" stroke="#A0A0A0" stroke-width="0.1" stroke-miterlimit="10"/>
<path d="M70 161.94C61.32 132.71 63 76.66 73.62 36.99L74.28 37.16C63.63 76.73 62 132.62 70.65 161.75L70 161.94Z" stroke="#A0A0A0" stroke-width="0.1" stroke-miterlimit="10"/>
<path d="M116.13 155.73L116.03 155.38C107.37 126.22 88.36 73.2 73.65 37.2L73.52 36.88L73.85 36.76C103.24 26.02 132.85 25.7 153.06 35.86C163.78 41.25 171 49.34 173.94 59.24C180.02 74.13 179.5 90.47 172.42 106.48C162.8 128.22 142.42 146.13 116.47 155.6L116.13 155.73ZM74.41 37.27C89.05 73.14 107.88 125.68 116.57 154.85C142.18 145.4 162.3 127.69 171.8 106.2C178.8 90.37 179.33 74.2 173.3 59.46C170.41 49.71 163.3 41.77 152.76 36.46C132.78 26.42 103.52 26.72 74.41 37.27Z" stroke="#A0A0A0" stroke-width="0.1" stroke-miterlimit="10"/>
<path d="M104.9 120L104.66 119.37C126.9 111.24 144.37 95.91 152.66 77.29C158.66 63.64 159.15 49.69 153.96 36.98L154.58 36.72C159.84 49.61 159.39 63.72 153.28 77.57C144.92 96.34 127.3 111.81 104.9 120Z" stroke="#A0A0A0" stroke-width="0.1" stroke-miterlimit="10"/>
<path d="M154.75 131C146.1 101.89 109.75 59.88 73.75 37.36L74.11 36.79C110.22 59.38 146.67 101.56 155.36 130.79L154.75 131Z" stroke="#A0A0A0" stroke-width="0.1" stroke-miterlimit="10"/>
<path d="M175.29 96.57C166.67 67.57 121.2 40.98 73.94 37.41L74 36.74C121.51 40.32 167.24 67.08 175.94 96.38L175.29 96.57Z" stroke="#A0A0A0" stroke-width="0.1" stroke-miterlimit="10"/>
<path d="M173.31 59.46C171.175 54.2729 168.295 49.4251 164.76 45.07C161.262 41.5579 157.207 38.6486 152.76 36.46C132.76 26.38 103.3 26.72 74.08 37.39L73.78 37.5L73.66 37.2C71.4 31.67 69.48 27.13 67.86 23.4C66.28 23.9 64.71 24.4 63.13 25.01L62.79 25.13L62.69 24.79C57.19 6.27001 58.34 5.87001 58.89 5.67001C59.44 5.47001 60.58 5.04002 68.24 22.57C106.24 10.76 145.5 20.28 165.24 44.57C169.292 48.6606 172.276 53.6847 173.93 59.2L173.31 59.46ZM118.09 28.46C131.23 28.46 143.25 30.92 153.09 35.85C155.85 37.2229 158.472 38.857 160.92 40.73C140.39 19.84 103.92 12.22 68.54 23.19C70.13 26.86 72 31.29 74.19 36.64C88.2439 31.4097 103.095 28.6458 118.09 28.47V28.46ZM59.09 6.33002C58.89 6.79002 58.81 9.42002 63.2 24.24C64.64 23.72 66.1 23.24 67.55 22.77C61.3 8.40002 59.55 6.55001 59.13 6.34001L59.09 6.33002Z" stroke="#A0A0A0" stroke-width="0.1" stroke-miterlimit="10"/>
<path d="M153.91 37C141.28 6.08001 98.64 -7.24999 58.85 7.28001L58.62 6.65001C98.74 -8.00999 141.77 5.50002 154.53 36.74L153.91 37Z" stroke="#A0A0A0" stroke-width="0.1" stroke-miterlimit="10"/>
<path d="M74.21 37.31L73.73 36.84C93.73 16.72 114.93 7.05002 130.45 10.97C139.45 13.24 145.91 19.97 149.02 30.47L148.37 30.66C145.37 20.42 139.08 13.83 130.29 11.66C115 7.76002 94 17.37 74.21 37.31Z" stroke="#A0A0A0" stroke-width="0.1" stroke-miterlimit="10"/>
<path d="M74.3 37.16L73.64 36.99C79.86 13.87 87.96 0.550012 95.87 0.450012H96C101.34 0.450012 106 6.53001 109.39 18.04L108.74 18.23C105.37 7.00001 101 1.13002 96 1.13002H95.92C88.41 1.22002 80.34 14.69 74.3 37.16Z" stroke="#A0A0A0" stroke-width="0.1" stroke-miterlimit="10"/>
<path d="M5.44003 120.77C-0.659974 105.85 -0.139974 89.51 6.94003 73.5C16.53 51.84 36.8 33.99 62.6 24.5C57.2 6.29001 58.34 5.89001 58.89 5.69001C59.44 5.49001 61.1601 4.84001 74.2801 36.97L74.41 37.29L74.08 37.41C27.97 54.25 -2.54996 91.56 6.08004 120.57L5.44003 120.77ZM59.13 6.34001C58.93 6.80001 58.85 9.47002 63.34 24.6L63.43 24.9L63.13 25.01C37.36 34.42 17.13 52.19 7.56002 73.77C1.33002 87.86 0.230012 102.2 4.30001 115.58C0.300012 87.18 29.94 52.91 73.52 36.88C62.32 9.47001 59.65 6.60001 59.13 6.34001Z" stroke="#A0A0A0" stroke-width="0.1" stroke-miterlimit="10"/>
<path d="M8.99998 89.89C3.72998 77 4.17996 62.89 10.3 49.05C18.61 30.27 36.22 14.8 58.63 6.62001L58.86 7.25002C36.63 15.37 19.15 30.71 10.92 49.33C4.91996 62.98 4.42997 76.92 9.61997 89.64L8.99998 89.89Z" stroke="#A0A0A0" stroke-width="0.1" stroke-miterlimit="10"/>
<path d="M24 49.17C20.66 37.94 21.76 29.82 27.17 25.71C35.46 19.41 53.02 23.56 74.17 36.79L73.81 37.36C52.9 24.28 35.62 20.13 27.57 26.24C22.4 30.18 21.39 38.04 24.64 48.98L24 49.17Z" stroke="#A0A0A0" stroke-width="0.1" stroke-miterlimit="10"/>
<path d="M3.41996 83.6C0.419957 73.37 2.15996 63.77 8.54996 55.85C20 41.65 44.45 34.51 74 36.74L73.94 37.41C44.62 35.2 20.38 42.25 9.06998 56.27C2.82998 64.02 1.06998 73.4 4.06998 83.4L3.41996 83.6Z" stroke="#A0A0A0" stroke-width="0.1" stroke-miterlimit="10"/>
<path d="M89.71 179.75C78.1565 179.797 66.7052 177.586 56 173.24C54.31 172.55 51.13 171.24 48.88 170C45.46 168.14 41.02 165.47 37.88 163.36C33.5767 160.352 29.5597 156.955 25.88 153.21C21.8758 149.159 18.2662 144.735 15.1 140C13.2 137.13 11.02 133.27 9.60999 130.61C8.90999 129.29 8.19 127.61 7.5 126.05L7.37 125.76C7.08 125.16 6.81 124.56 6.56 123.94C5.29 120.73 3.36001 115.02 2.95001 113.22C2.80001 112.59 2.63001 111.89 2.45001 111.17C2.03001 109.44 1.59003 107.64 1.34003 106.17C0.790028 102.83 0.340031 98.48 0.0300308 95.52C-0.23709 92.1928 -0.260493 88.8506 -0.0399765 85.52C0.308344 80.9496 0.892455 76.4002 1.71002 71.89C2.26863 68.9494 3.0236 66.0496 3.96997 63.21C4.14997 62.69 4.34999 62.12 4.54999 61.53C5.05999 60.03 5.63998 58.33 6.16998 57C6.87998 55.26 8.24998 52 9.47998 49.66C11.504 45.5926 13.8445 41.6906 16.48 37.99C18.9573 34.5063 21.681 31.2046 24.63 28.11C27.409 25.1684 30.3968 22.4313 33.57 19.92C36.621 17.4804 39.8278 15.2423 43.17 13.22C46.4725 11.2134 49.907 9.4327 53.45 7.88999C53.97 7.68999 54.54 7.44999 55.12 7.19999C56.4 6.65999 57.72 6.1 58.86 5.72C65.93 3.39 66.5 3.2 69.94 2.46C73.55 1.68 78.47 0.999993 81.08 0.669993C82.28 0.519993 83.74 0.449994 85.15 0.389994L86.87 0.299997C90.7881 0.185114 94.7095 0.322066 98.61 0.710001C111.83 2.03426 124.596 6.25424 136 13.07C138.11 14.36 141 16.32 143.29 17.95C144.47 18.81 145.87 19.95 147.11 20.95L148.5 22.09C161.441 33.3146 170.898 48.0106 175.75 64.44C176.958 68.6703 177.9 72.972 178.57 77.32C179.114 82.0212 179.412 86.7477 179.46 91.48C179.486 94.7907 179.245 98.098 178.74 101.37C178.65 101.93 178.56 102.54 178.46 103.17C178.22 104.8 177.93 106.65 177.61 108.11C177.07 110.6 176.23 114.11 175.36 116.77C173.913 121.439 172.07 125.975 169.85 130.33C167.72 134.61 167.26 135.33 162.85 141.96C160.384 145.464 157.652 148.774 154.68 151.86C151.9 154.8 148.916 157.54 145.75 160.06C139.668 164.9 132.986 168.933 125.87 172.06C120.562 174.374 115.052 176.191 109.41 177.49C105.7 178.33 105.56 178.35 98.35 179.27H98.23C96.4 179.5 94.03 179.61 92.42 179.64L89.71 179.75ZM10.92 131.66C12.28 134.16 14.08 137.27 15.66 139.66C18.8002 144.343 22.3762 148.72 26.34 152.73C29.9976 156.44 33.9839 159.81 38.25 162.8C41.42 164.9 45.84 167.56 49.25 169.41C51.48 170.62 54.63 171.93 56.31 172.61C67.7708 177.258 80.0789 179.452 92.44 179.05C94.3582 179.028 96.274 178.908 98.18 178.69H98.29C105.47 177.78 105.61 177.76 109.29 176.92C114.892 175.635 120.363 173.83 125.63 171.53C132.689 168.424 139.315 164.414 145.34 159.6C148.487 157.098 151.454 154.378 154.22 151.46C157.154 148.409 159.852 145.14 162.29 141.68C166.72 135.02 167.18 134.33 169.29 130.09C171.499 125.765 173.332 121.258 174.77 116.62C175.63 114.01 176.46 110.5 177 108.02C177.32 106.59 177.6 104.75 177.85 103.13C177.94 102.49 178.04 101.88 178.13 101.32C178.622 98.0869 178.86 94.8202 178.84 91.55C178.792 86.8476 178.495 82.151 177.95 77.48C177.284 73.1732 176.352 68.9117 175.16 64.72C170.352 48.4305 160.983 33.8569 148.16 22.72L146.77 21.57C145.54 20.57 144.14 19.4 142.99 18.57C140.74 16.95 137.83 15 135.74 13.72C121.054 4.87667 104.136 0.437353 87 0.929987L85.26 1.00999C83.87 1.07999 82.43 1.13999 81.26 1.28999C78.66 1.61999 73.76 2.29 70.18 3.07C66.78 3.8 66.18 3.98999 59.18 6.30999C58.05 6.67999 56.74 7.23 55.48 7.77L53.79 8.47C50.2752 9.99574 46.8703 11.7633 43.6 13.76C40.2576 15.7601 37.0507 17.9782 34 20.4C30.8466 22.8945 27.8788 25.615 25.12 28.54C22.1999 31.6066 19.503 34.8783 17.05 38.33C14.4106 41.9965 12.0697 45.8689 10.05 49.91C8.82999 52.23 7.46001 55.48 6.76001 57.21C6.23001 58.51 5.65002 60.21 5.14002 61.7C4.94002 62.29 4.75001 62.87 4.57001 63.39C3.62785 66.1954 2.87943 69.0621 2.33002 71.97C1.51851 76.4536 0.941019 80.9763 0.599977 85.52C0.378798 88.827 0.398849 92.1459 0.659975 95.45C0.929975 98.45 1.42002 102.74 1.96002 106.06C2.21002 107.55 2.65001 109.33 3.07001 111.06C3.25001 111.78 3.42001 112.48 3.57001 113.12C4.58351 116.715 5.77839 120.256 7.15003 123.73C7.40003 124.28 7.67001 124.9 7.95001 125.54C17.27 145.03 44.52 153.97 76.29 149.79C86.096 148.458 95.7288 146.067 105.02 142.66L105.2 142.6L105.43 143.23C65.6 157.8 26.48 152.47 10.92 131.66Z" stroke="#A0A0A0" stroke-width="0.1" stroke-miterlimit="10"/>
</g>
<path d="M6.87002 123.85C17.77 150.53 60.8701 159.17 105.4 142.85C60.8501 159.12 17.77 150.48 6.87002 123.85ZM6.87002 123.85C5.60002 120.65 3.69006 114.97 3.28006 113.19C2.79006 111.07 2.02001 108.26 1.67001 106.11C1.15001 102.94 0.670013 98.68 0.360013 95.48C0.0946054 92.1527 0.0745536 88.8103 0.300015 85.48C0.631122 80.9303 1.19857 76.4008 2.00003 71.91C2.55787 68.9866 3.30953 66.1036 4.25003 63.28C4.90003 61.41 5.71004 58.91 6.45004 57.08C7.36004 54.85 8.62002 51.89 9.74002 49.76C11.7567 45.7045 14.0976 41.8185 16.74 38.14C19.2011 34.6708 21.9116 31.3854 24.85 28.31C27.6189 25.372 30.5967 22.6383 33.76 20.13C36.8046 17.705 40.0012 15.4771 43.33 13.46C46.6091 11.4575 50.0241 9.68647 53.55 8.16C55.17 7.51 57.29 6.54001 58.94 5.99001C65.94 3.67001 66.57 3.48001 69.94 2.74001C73.31 2.00001 77.7 1.38 81.05 0.949998C82.77 0.739998 85.05 0.699997 86.82 0.589997C90.7215 0.475824 94.6262 0.612777 98.51 1C106.948 1.85181 115.223 3.89199 123.09 7.06C127.475 8.81745 131.712 10.9242 135.76 13.36C138 14.73 140.9 16.69 143.03 18.23C144.64 19.4 146.66 21.14 148.21 22.39C161.106 33.5737 170.528 48.2182 175.36 64.59C176.561 68.801 177.5 73.0826 178.17 77.41C178.718 82.094 179.012 86.8042 179.05 91.52C179.074 94.8136 178.836 98.1039 178.34 101.36C178.01 103.36 177.65 106.08 177.21 108.07C176.64 110.69 175.81 114.16 174.97 116.7C173.525 121.354 171.688 125.876 169.48 130.22C167.35 134.48 166.89 135.22 162.48 141.84C160.033 145.32 157.322 148.606 154.37 151.67C151.597 154.601 148.62 157.331 145.46 159.84C139.405 164.677 132.75 168.711 125.66 171.84C120.375 174.143 114.888 175.954 109.27 177.25C105.55 178.1 105.41 178.11 98.12 179.04C96.4 179.26 94.12 179.38 92.35 179.41C79.9411 179.807 67.5864 177.603 56.08 172.94C53.6611 171.994 51.2944 170.919 48.99 169.72C45.61 167.88 41.19 165.23 37.99 163.1C33.6865 160.108 29.6694 156.723 25.99 152.99C22.0086 148.964 18.416 144.571 15.26 139.87C13.47 137.16 11.26 133.38 9.79001 130.51C8.88001 128.56 7.78002 125.84 6.87002 123.85Z" stroke="#A0A0A0" stroke-width="0.1" stroke-miterlimit="10"/>
<mask id="mask3_1_1588" style="mask-type:luminance" maskUnits="userSpaceOnUse" x="0" y="0" width="180" height="180">
<path d="M120.36 174C114.993 175.96 109.451 177.403 103.81 178.31C98.1939 179.239 92.4986 179.601 86.81 179.39C83.37 179.24 78.81 178.73 75.38 178.28C73.52 178.04 71.08 177.51 69.27 177.07C67.46 176.63 64.78 175.98 62.91 175.33C59.43 174.12 54.83 172.33 51.46 170.86C42.0288 166.438 33.4482 160.393 26.11 153C24.69 151.5 22.76 149.53 21.46 147.93C19.54 145.59 17.05 142.41 15.38 139.93C14.2 138.14 12.65 135.73 11.65 133.84C10.1 130.93 8.19002 126.96 6.87002 123.93C6.44301 122.879 6.06921 121.808 5.75002 120.72C-2.91998 91.47 27.69 54 74 37.07C27.72 53.98 -2.88995 91.47 5.78005 120.64C6.09924 121.728 6.47304 122.799 6.90005 123.85C6.15005 121.78 5.05005 119.05 4.40005 116.94C3.62005 114.39 2.79004 110.94 2.14004 108.33C1.44284 105.263 0.955023 102.153 0.680015 99.02C0.305389 95.5098 0.155072 91.9793 0.230003 88.45C0.340003 86.38 0.390018 83.6 0.620018 81.53C0.940018 78.63 1.45003 74.76 2.07003 71.91C3.97948 62.644 7.35526 53.7421 12.07 45.54C16.5306 37.7644 22.133 30.7024 28.69 24.59C34.5933 19.0641 41.2288 14.3768 48.41 10.66C51.8405 8.88982 55.3773 7.33351 59 6C60.65 5.46 62.82 4.63 64.5 4.19C71.97 2.19 71.97 2.18999 75.5 1.67999C77.18 1.41999 79.42 1.07001 81.11 0.960007C84.48 0.750007 89 0.600006 92.38 0.600006C96.2726 0.729691 100.153 1.1004 104 1.71001C108.221 2.37978 112.386 3.36589 116.46 4.66C120.361 5.93005 124.187 7.41907 127.92 9.12C134.592 12.2682 140.849 16.2282 146.55 20.91C152.09 25.67 152.09 25.67 157.9 32.08C160.137 34.5797 162.171 37.2549 163.98 40.08C166.534 44.1363 168.871 48.3255 170.98 52.63C172.71 56.5059 174.202 60.4832 175.45 64.54C176.07 66.64 176.81 69.46 177.24 71.6C177.79 74.37 178.31 78.11 178.69 80.91C179.13 84.4117 179.28 87.9436 179.14 91.47C178.96 95.6 178.46 101.1 177.84 105.19C177.358 108.349 176.643 111.467 175.7 114.52C175.09 116.41 174.35 118.95 173.64 120.81C172.72 123.23 171.37 126.42 170.26 128.76C168.23 133.026 165.856 137.12 163.16 141C160.676 144.616 157.914 148.033 154.9 151.22C152.077 154.235 149.042 157.046 145.82 159.63C142.738 162.115 139.494 164.394 136.11 166.45C134.57 167.32 132.57 168.57 130.97 169.33C127.85 170.83 123.64 172.74 120.4 173.98L120.36 174Z" fill="white"/>
</mask>
<g mask="url(#mask3_1_1588)">
<path d="M120.28 174.34C119.66 174.34 117.93 172.97 111.13 157.41C73.13 169.21 33.88 159.7 14.13 135.41C10.0736 131.321 7.08571 126.297 5.42999 120.78L6.07001 120.55C8.19327 125.741 11.0709 130.59 14.61 134.94C18.1044 138.456 22.1599 141.366 26.61 143.55C46.67 153.64 76.09 153.29 105.29 142.63L105.6 142.51L105.72 142.82C107.98 148.35 109.89 152.89 111.52 156.62C113.1 156.12 114.673 155.583 116.24 155.01L116.58 154.89L116.68 155.23C122.18 173.75 121.04 174.15 120.49 174.34C120.421 174.353 120.349 174.353 120.28 174.34ZM111.78 157.2C118.06 171.58 119.78 173.43 120.24 173.64C120.44 173.18 120.52 170.55 116.13 155.73C114.71 156.25 113.26 156.74 111.78 157.2ZM18.48 139.2C39.01 160.1 75.48 167.72 110.86 156.74C109.26 153.07 107.39 148.64 105.21 143.29C75.93 153.91 46.45 154.21 26.3 144.08C23.5449 142.72 20.9263 141.099 18.48 139.24V139.2Z" stroke="#A0A0A0" stroke-width="0.1" stroke-miterlimit="10"/>
<path d="M87.78 179.28C59.31 179.28 34.1 165.95 24.84 143.28L25.46 143.02C38.09 173.93 80.73 187.27 120.46 172.74L120.7 173.37C110.155 177.245 99.0141 179.245 87.78 179.28Z" stroke="#A0A0A0" stroke-width="0.1" stroke-miterlimit="10"/>
<path d="M56.09 169.87C53.6702 169.883 51.2582 169.595 48.91 169.01C39.91 166.74 33.46 160.01 30.34 149.51L30.99 149.32C33.99 159.56 40.29 166.14 49.08 168.32C64.4 172.17 85.36 162.57 105.16 142.63L105.64 143.1C88.59 160.31 70.65 169.87 56.09 169.87Z" stroke="#A0A0A0" stroke-width="0.1" stroke-miterlimit="10"/>
<path d="M83.4 179.53C78.06 179.53 73.4 173.45 70.02 161.94L70.67 161.75C74 172.94 78.39 178.85 83.4 178.85H83.48C90.96 178.76 99.03 165.28 105.07 142.85L105.72 143.03C99.5 166.15 91.4 179.47 83.49 179.57L83.4 179.53Z" stroke="#A0A0A0" stroke-width="0.1" stroke-miterlimit="10"/>
<path d="M120.28 174.34C119.5 174.34 117 172.2 105.09 143.03L104.95 142.71L105.28 142.59C151.4 125.74 181.91 88.44 173.28 59.43L173.92 59.21C180.01 74.13 179.49 90.47 172.41 106.48C162.83 128.14 142.55 145.99 116.75 155.48C122.15 173.7 121.01 174.1 120.47 174.29C120.41 174.317 120.346 174.334 120.28 174.34ZM105.84 143.1C117.05 170.51 119.71 173.38 120.24 173.64C120.44 173.18 120.52 170.51 116.03 155.38L115.94 155.08L116.23 154.97C142 145.56 162.23 127.78 171.8 106.2C178.03 92.12 179.13 77.78 175.06 64.4C179.05 92.79 149.43 127.07 105.84 143.1Z" stroke="#A0A0A0" stroke-width="0.1" stroke-miterlimit="10"/>
<path d="M120.75 173.36L120.51 172.73C142.75 164.61 160.22 149.27 168.51 130.65C174.51 117 175 103.06 169.81 90.34L170.43 90.09C175.69 102.98 175.24 117.09 169.13 130.93C160.77 149.71 143.15 165.18 120.75 173.36Z" stroke="#A0A0A0" stroke-width="0.1" stroke-miterlimit="10"/>
<path d="M142.11 157.16C132.8 157.16 119.87 152.35 105.22 143.16L105.58 142.59C126.49 155.67 143.77 159.83 151.81 153.7C157 149.8 158 141.94 154.75 131L155.4 130.8C158.73 142.04 157.64 150.15 152.22 154.27C149.68 156.21 146.25 157.16 142.11 157.16Z" stroke="#A0A0A0" stroke-width="0.1" stroke-miterlimit="10"/>
<path d="M115.84 143.64C112.427 143.64 108.937 143.507 105.37 143.24V142.57C134.67 144.78 158.93 137.73 170.24 123.71C176.49 115.96 178.24 106.58 175.24 96.57L175.89 96.38C178.89 106.61 177.16 116.21 170.77 124.13C160.75 136.61 140.62 143.64 115.84 143.64Z" stroke="#A0A0A0" stroke-width="0.1" stroke-miterlimit="10"/>
<path d="M105.21 143.33L105.09 143.03C90.38 107.03 71.36 53.97 62.69 24.79L62.6 24.48L62.9 24.38C109.35 7.38002 159.16 23.04 173.9 59.21C182.63 88.58 151.9 126.21 105.48 143.21L105.21 143.33ZM63.43 24.9C72.11 54.05 90.96 106.61 105.59 142.47C151.53 125.58 181.89 88.38 173.29 59.47C158.7 23.7 109.46 8.24001 63.43 24.9Z" stroke="#A0A0A0" stroke-width="0.1" stroke-miterlimit="10"/>
<path d="M169.76 90.34C157.13 59.43 114.48 46.1 74.7 60.62L74.47 59.99C114.6 45.33 157.62 58.84 170.38 90.09L169.76 90.34Z" stroke="#A0A0A0" stroke-width="0.1" stroke-miterlimit="10"/>
<path d="M105.64 143.14L105.16 142.67C137.62 109.98 157.01 59.73 148.37 30.67L149.02 30.48C157.72 59.75 138.26 110.3 105.64 143.14Z" stroke="#A0A0A0" stroke-width="0.1" stroke-miterlimit="10"/>
<path d="M105.72 143L105.07 142.82C115.72 103.26 117.35 47.37 108.7 18.24L109.35 18.05C118 47.27 116.4 103.32 105.72 143Z" stroke="#A0A0A0" stroke-width="0.1" stroke-miterlimit="10"/>
<path d="M61.27 151.51C48.14 151.51 36.11 149.05 26.27 144.12C15.55 138.73 8.34003 130.64 5.39003 120.74C-0.689973 105.85 -0.170015 89.51 6.90999 73.5C16.53 51.75 36.91 33.85 62.91 24.38L63.25 24.25L63.35 24.6C72 53.76 91 106.78 105.71 142.78L105.84 143.1L105.51 143.22C91.3547 148.525 76.3855 151.33 61.27 151.51ZM62.79 25.13C37.19 34.58 17.07 52.29 7.56001 73.77C0.560009 89.61 0.0400095 105.77 6.06001 120.51C8.96001 130.27 16.06 138.21 26.6 143.51C46.6 153.56 75.85 153.25 104.95 142.71C90.32 106.84 71.48 54.3 62.79 25.13Z" stroke="#A0A0A0" stroke-width="0.1" stroke-miterlimit="10"/>
<path d="M24.84 143.27C19.57 130.37 20.02 116.27 26.14 102.42C34.45 83.64 52.0699 68.17 74.4699 59.99L74.7 60.62C52.47 68.74 34.99 84.08 26.76 102.7C20.76 116.35 20.27 130.29 25.46 143.01L24.84 143.27Z" stroke="#A0A0A0" stroke-width="0.1" stroke-miterlimit="10"/>
<path d="M105.22 143.19C69.1 120.59 32.65 78.42 23.97 49.19L24.62 49C33.26 78.11 69.62 120.12 105.62 142.64L105.22 143.19Z" stroke="#A0A0A0" stroke-width="0.1" stroke-miterlimit="10"/>
<path d="M105.37 143.24C57.86 139.65 12.13 112.9 3.37 83.6L4.02002 83.4C12.65 112.46 58.12 139 105.37 142.57V143.24Z" stroke="#A0A0A0" stroke-width="0.1" stroke-miterlimit="10"/>
<path d="M78.3 162.46C45.3 162.46 16.16 147.03 5.44 120.77C-3.27 91.42 27.44 53.77 73.87 36.77L74.18 36.66L74.3 36.96C89 73 108 126 116.67 155.19L116.76 155.49L116.47 155.6C104.244 160.096 91.3261 162.418 78.3 162.46ZM6.07 120.53C20.68 156.28 69.91 171.74 115.94 155.08C107.26 125.93 88.41 73.37 73.78 37.5C27.84 54.4 -2.51 91.59 6.07 120.53Z" stroke="#A0A0A0" stroke-width="0.1" stroke-miterlimit="10"/>
<path d="M71.93 125.91C43.46 125.91 18.25 112.58 8.98999 89.91L9.60999 89.66C22.24 120.58 64.89 133.9 104.61 119.38L104.85 120.01C94.3048 123.882 83.1635 125.879 71.93 125.91Z" stroke="#A0A0A0" stroke-width="0.1" stroke-miterlimit="10"/>
<path d="M70.38 81C53.69 81 38.91 73.18 33.47 59.88L34.1 59.62C41.45 77.62 66.28 85.36 89.45 76.9L89.68 77.54C83.4978 79.8104 76.9659 80.9814 70.38 81Z" stroke="#A0A0A0" stroke-width="0.1" stroke-miterlimit="10"/>
<path d="M30.34 149.51C21.65 120.23 41.11 69.68 73.73 36.84L74.21 37.31C41.74 70 22.36 120.25 30.99 149.31L30.34 149.51Z" stroke="#A0A0A0" stroke-width="0.1" stroke-miterlimit="10"/>
<path d="M70 161.94C61.32 132.71 63 76.66 73.62 36.99L74.28 37.16C63.63 76.73 62 132.62 70.65 161.75L70 161.94Z" stroke="#A0A0A0" stroke-width="0.1" stroke-miterlimit="10"/>
<path d="M116.13 155.73L116.03 155.38C107.37 126.22 88.36 73.2 73.65 37.2L73.52 36.88L73.85 36.76C103.24 26.02 132.85 25.7 153.06 35.86C163.78 41.25 171 49.34 173.94 59.24C180.02 74.13 179.5 90.47 172.42 106.48C162.8 128.22 142.42 146.13 116.47 155.6L116.13 155.73ZM74.41 37.27C89.05 73.14 107.88 125.68 116.57 154.85C142.18 145.4 162.3 127.69 171.8 106.2C178.8 90.37 179.33 74.2 173.3 59.46C170.41 49.71 163.3 41.77 152.76 36.46C132.78 26.42 103.52 26.72 74.41 37.27Z" stroke="#A0A0A0" stroke-width="0.1" stroke-miterlimit="10"/>
<path d="M104.9 120L104.66 119.37C126.9 111.24 144.37 95.91 152.66 77.29C158.66 63.64 159.15 49.69 153.96 36.98L154.58 36.72C159.84 49.61 159.39 63.72 153.28 77.57C144.92 96.34 127.3 111.81 104.9 120Z" stroke="#A0A0A0" stroke-width="0.1" stroke-miterlimit="10"/>
<path d="M89.68 77.56L89.45 76.92C102.4 72.19 112.58 63.26 117.38 52.42C120.89 44.48 121.15 36.42 118.13 28.98L118.76 28.72C121.85 36.29 121.59 44.58 118 52.72C113.13 63.7 102.81 72.77 89.68 77.56Z" stroke="#A0A0A0" stroke-width="0.1" stroke-miterlimit="10"/>
<path d="M154.75 131C146.1 101.89 109.75 59.88 73.75 37.36L74.11 36.79C110.22 59.38 146.67 101.56 155.36 130.79L154.75 131Z" stroke="#A0A0A0" stroke-width="0.1" stroke-miterlimit="10"/>
<path d="M175.29 96.57C166.67 67.57 121.2 40.98 73.94 37.41L74 36.74C121.51 40.32 167.24 67.08 175.94 96.38L175.29 96.57Z" stroke="#A0A0A0" stroke-width="0.1" stroke-miterlimit="10"/>
<path d="M173.31 59.46C171.175 54.2729 168.295 49.4251 164.76 45.07C161.262 41.5579 157.207 38.6486 152.76 36.46C132.76 26.38 103.3 26.72 74.08 37.39L73.78 37.5L73.66 37.2C71.4 31.67 69.48 27.13 67.86 23.4C66.28 23.9 64.71 24.4 63.13 25.01L62.79 25.13L62.69 24.79C57.19 6.27001 58.34 5.87001 58.89 5.67001C59.44 5.47001 60.58 5.04002 68.24 22.57C106.24 10.76 145.5 20.28 165.24 44.57C169.292 48.6606 172.276 53.6847 173.93 59.2L173.31 59.46ZM118.09 28.46C131.23 28.46 143.25 30.92 153.09 35.85C155.85 37.2229 158.472 38.857 160.92 40.73C140.39 19.84 103.92 12.22 68.54 23.19C70.13 26.86 72 31.29 74.19 36.64C88.2439 31.4097 103.095 28.6458 118.09 28.47V28.46ZM59.09 6.33002C58.89 6.79002 58.81 9.42002 63.2 24.24C64.64 23.72 66.1 23.24 67.55 22.77C61.3 8.40002 59.55 6.55001 59.13 6.34001L59.09 6.33002Z" stroke="#A0A0A0" stroke-width="0.1" stroke-miterlimit="10"/>
<path d="M153.91 37C141.28 6.08001 98.64 -7.24999 58.85 7.28001L58.62 6.65001C98.74 -8.00999 141.77 5.50002 154.53 36.74L153.91 37Z" stroke="#A0A0A0" stroke-width="0.1" stroke-miterlimit="10"/>
<path d="M118.14 29C110.79 11 85.95 3.26002 62.78 11.72L62.55 11.08C86.05 2.49002 111.27 10.42 118.76 28.74L118.14 29Z" stroke="#A0A0A0" stroke-width="0.1" stroke-miterlimit="10"/>
<path d="M74.21 37.31L73.73 36.84C93.73 16.72 114.93 7.05002 130.45 10.97C139.45 13.24 145.91 19.97 149.02 30.47L148.37 30.66C145.37 20.42 139.08 13.83 130.29 11.66C115 7.76002 94 17.37 74.21 37.31Z" stroke="#A0A0A0" stroke-width="0.1" stroke-miterlimit="10"/>
<path d="M74.3 37.16L73.64 36.99C79.86 13.87 87.96 0.550012 95.87 0.450012H96C101.34 0.450012 106 6.53001 109.39 18.04L108.74 18.23C105.37 7.00001 101 1.13002 96 1.13002H95.92C88.41 1.22002 80.34 14.69 74.3 37.16Z" stroke="#A0A0A0" stroke-width="0.1" stroke-miterlimit="10"/>
<path d="M5.44003 120.77C-0.659974 105.85 -0.139974 89.51 6.94003 73.5C16.53 51.84 36.8 33.99 62.6 24.5C57.2 6.29001 58.34 5.89001 58.89 5.69001C59.44 5.49001 61.1601 4.84001 74.2801 36.97L74.41 37.29L74.08 37.41C27.97 54.25 -2.54996 91.56 6.08004 120.57L5.44003 120.77ZM59.13 6.34001C58.93 6.80001 58.85 9.47002 63.34 24.6L63.43 24.9L63.13 25.01C37.36 34.42 17.13 52.19 7.56002 73.77C1.33002 87.86 0.230012 102.2 4.30001 115.58C0.300012 87.18 29.94 52.91 73.52 36.88C62.32 9.47001 59.65 6.60001 59.13 6.34001Z" stroke="#A0A0A0" stroke-width="0.1" stroke-miterlimit="10"/>
<path d="M8.99998 89.89C3.72998 77 4.17996 62.89 10.3 49.05C18.61 30.27 36.22 14.8 58.63 6.62001L58.86 7.25002C36.63 15.37 19.15 30.71 10.92 49.33C4.91996 62.98 4.42997 76.92 9.61997 89.64L8.99998 89.89Z" stroke="#A0A0A0" stroke-width="0.1" stroke-miterlimit="10"/>
<path d="M33.4699 59.9C30.3799 52.33 30.65 44.04 34.24 35.9C39.11 24.9 49.43 15.83 62.55 11.03L62.78 11.67C49.83 16.4 39.65 25.33 34.86 36.17C31.34 44.11 31.08 52.22 34.1 59.61L33.4699 59.9Z" stroke="#A0A0A0" stroke-width="0.1" stroke-miterlimit="10"/>
<path d="M24 49.17C20.66 37.94 21.76 29.82 27.17 25.71C35.46 19.41 53.02 23.56 74.17 36.79L73.81 37.36C52.9 24.28 35.62 20.13 27.57 26.24C22.4 30.18 21.39 38.04 24.64 48.98L24 49.17Z" stroke="#A0A0A0" stroke-width="0.1" stroke-miterlimit="10"/>
<path d="M3.41996 83.6C0.419957 73.37 2.15996 63.77 8.54996 55.85C20 41.65 44.45 34.51 74 36.74L73.94 37.41C44.62 35.2 20.38 42.25 9.06998 56.27C2.82998 64.02 1.06998 73.4 4.06998 83.4L3.41996 83.6Z" stroke="#A0A0A0" stroke-width="0.1" stroke-miterlimit="10"/>
<path d="M89.85 179.79C88.62 179.79 87.5801 179.79 86.7701 179.72C83.85 179.59 79.56 179.17 75.31 178.61C73.12 178.32 70.31 177.66 69.17 177.39C67.51 176.99 64.7401 176.32 62.7801 175.64C58.9101 174.29 54.4 172.53 51.3 171.16C41.8323 166.694 33.2217 160.602 25.86 153.16L25.16 152.43C23.82 151.03 22.31 149.43 21.16 148.08C19.67 146.26 16.91 142.8 15.06 140C13.34 137.39 12.06 135.39 11.31 133.88C9.76003 130.96 7.83006 126.97 6.53006 123.94C6.27006 123.3 6.02002 122.64 5.80002 121.94C5.80002 121.88 5.75 121.81 5.72 121.74C5.1 120.11 4.46005 118.42 4.02005 116.98C3.36005 114.82 2.67004 112.05 2.07004 109.62L1.75003 108.35C1.0528 105.267 0.565 102.139 0.290008 98.99C-0.0964392 95.4673 -0.250067 91.9229 -0.169953 88.38C-0.169953 87.79 -0.109987 87.15 -0.0799873 86.49C-0.0199873 84.82 0.0600005 82.93 0.22 81.43C0.53 78.65 1.04002 74.71 1.68002 71.77C3.58248 62.4768 6.95842 53.5474 11.68 45.32C14.0035 41.2882 16.6277 37.4373 19.5301 33.8C22.2405 30.4214 25.1879 27.2401 28.35 24.28C34.2851 18.7286 40.954 14.018 48.17 10.28C51.6216 8.50503 55.1782 6.94214 58.82 5.60001L60.5 5.02C61.81 4.56 63.17 4.09 64.33 3.78C71.82 1.83 71.82 1.83 75.42 1.27C77.1 1.01 79.36 0.660003 81.06 0.550003C84.48 0.330003 88.94 0.179993 92.22 0.179993H92.35C96.242 0.324435 100.122 0.698429 103.97 1.3C108.211 1.99297 112.396 2.99566 116.49 4.3C120.406 5.57588 124.246 7.075 127.99 8.78999C134.696 11.9374 140.981 15.9116 146.7 20.62C152.26 25.4 152.26 25.4 158.08 31.82C160.334 34.3517 162.38 37.0604 164.2 39.92C166.758 43.9878 169.095 48.1906 171.2 52.51C172.935 56.3881 174.431 60.3689 175.68 64.43C176.27 66.43 177.04 69.32 177.49 71.56C178.06 74.44 178.62 78.47 178.95 80.88C179.389 84.4052 179.539 87.9603 179.4 91.51C179.21 95.82 178.68 101.35 178.1 105.26C177.613 108.439 176.891 111.578 175.94 114.65C175.76 115.2 175.57 115.8 175.38 116.43C174.91 117.92 174.38 119.62 173.88 120.94C172.88 123.58 171.54 126.71 170.49 128.94C168.438 133.205 166.047 137.298 163.34 141.18C160.842 144.803 158.071 148.23 155.05 151.43C149.481 157.357 143.133 162.501 136.18 166.72L134.64 167.61C133.41 168.33 132.13 169.08 131.02 169.61C129.56 170.31 124.49 172.71 120.42 174.27L120.26 173.97L120.38 174.28C110.566 177.875 100.201 179.732 89.75 179.77L89.85 179.79ZM7.19003 123.72C8.49003 126.72 10.4 130.72 11.94 133.6C12.73 135.08 13.94 137.12 15.66 139.66C17.49 142.44 20.24 145.88 21.72 147.66C22.81 149 24.3201 150.58 25.6501 151.98L26.35 152.71C30.0093 156.415 33.9955 159.782 38.26 162.77C42.4639 165.734 46.9173 168.327 51.57 170.52C54.66 171.88 59.14 173.63 63 174.97C64.93 175.64 67.68 176.31 69.33 176.7C70.43 176.97 73.2401 177.62 75.4001 177.91C79.6401 178.47 83.9 178.91 86.8 179.01C92.4882 179.225 98.1836 178.866 103.8 177.94C109.421 177.034 114.942 175.594 120.29 173.64C123.05 172.58 126.98 170.85 130.84 169C131.92 168.48 133.19 167.74 134.41 167L135.96 166.1C139.328 164.05 142.558 161.782 145.63 159.31C148.821 156.733 151.829 153.936 154.63 150.94C157.631 147.761 160.386 144.358 162.87 140.76C165.564 136.922 167.948 132.876 170 128.66C171 126.46 172.37 123.35 173.37 120.73C173.87 119.43 174.37 117.73 174.86 116.25C175.06 115.63 175.25 115.02 175.43 114.47C176.367 111.433 177.079 108.331 177.56 105.19C178.14 101.3 178.66 95.8 178.86 91.51C178.989 88.0003 178.838 84.4859 178.41 81C178.08 78.6 177.52 74.58 176.96 71.72C176.52 69.5 175.75 66.63 175.17 64.72C173.933 60.6784 172.447 56.7175 170.72 52.86C168.617 48.5622 166.28 44.3827 163.72 40.34C161.937 37.5173 159.931 34.842 157.72 32.34C151.93 25.95 151.93 25.95 146.4 21.2C140.726 16.5376 134.495 12.5974 127.85 9.47C124.112 7.76121 120.279 6.26875 116.37 5C112.327 3.69489 108.192 2.69213 104 2C100.183 1.39826 96.3322 1.02758 92.47 0.889999H92.3401C89.0801 0.889999 84.63 1.03 81.22 1.25C79.55 1.36 77.31 1.71001 75.67 1.96001C72.07 2.52001 72.07 2.52 64.67 4.47C63.54 4.76 62.19 5.24 60.89 5.69L59.2 6.27C55.5529 7.62617 51.9928 9.20583 48.54 11C41.3906 14.7046 34.7825 19.3713 28.9001 24.87C22.3655 30.9588 16.7861 37.9979 12.35 45.75C7.63758 53.914 4.26158 62.7794 2.35001 72.01C1.71001 74.93 1.21005 78.84 0.900054 81.61C0.740054 83.08 0.670005 84.96 0.600005 86.61C0.600005 87.28 0.600049 87.92 0.520049 88.51C0.442053 92.0135 0.602403 95.5183 1.00003 99C1.27558 102.115 1.75663 105.208 2.44003 108.26L2.76004 109.53C3.24004 111.45 3.76001 113.53 4.29001 115.43C4.06594 113.756 3.9524 112.069 3.95004 110.38C3.95004 83.05 32.73 51.79 73.86 36.77L74.0901 37.4C33.2301 52.32 4.62002 83.31 4.62002 110.35C4.61203 113.806 5.1038 117.245 6.08005 120.56C6.20005 120.97 6.33 121.38 6.47 121.78C6.72 122.46 7.00003 123.12 7.19003 123.72Z" stroke="#A0A0A0" stroke-width="0.1" stroke-miterlimit="10"/>
</g>
<path d="M120.36 174C114.993 175.96 109.451 177.403 103.81 178.31C98.1939 179.239 92.4986 179.601 86.81 179.39C83.37 179.24 78.81 178.73 75.38 178.28C73.52 178.04 71.08 177.51 69.27 177.07C67.46 176.63 64.78 175.98 62.91 175.33C59.43 174.12 54.83 172.33 51.46 170.86C42.0288 166.438 33.4482 160.393 26.11 153C24.69 151.5 22.76 149.53 21.46 147.93C19.54 145.59 17.05 142.41 15.38 139.93C14.2 138.14 12.65 135.73 11.65 133.84C10.1 130.93 8.19002 126.96 6.87002 123.93C6.44301 122.879 6.06921 121.808 5.75002 120.72C-2.91998 91.47 27.69 54 74 37.07C27.72 53.98 -2.88995 91.47 5.78005 120.64C6.09924 121.728 6.47304 122.799 6.90005 123.85C6.15005 121.78 5.05005 119.05 4.40005 116.94C3.62005 114.39 2.79004 110.94 2.14004 108.33C1.44284 105.263 0.955023 102.153 0.680015 99.02C0.305389 95.5098 0.155072 91.9793 0.230003 88.45C0.340003 86.38 0.390018 83.6 0.620018 81.53C0.940018 78.63 1.45003 74.76 2.07003 71.91C3.97948 62.644 7.35526 53.7421 12.07 45.54C16.5306 37.7644 22.133 30.7024 28.69 24.59C34.5933 19.0641 41.2288 14.3768 48.41 10.66C51.8405 8.88982 55.3773 7.33351 59 6C60.65 5.46 62.82 4.63 64.5 4.19C71.97 2.19 71.97 2.18999 75.5 1.67999C77.18 1.41999 79.42 1.07001 81.11 0.960007C84.48 0.750007 89 0.600006 92.38 0.600006C96.2726 0.729691 100.153 1.1004 104 1.71001C108.221 2.37978 112.386 3.36589 116.46 4.66C120.361 5.93005 124.187 7.41907 127.92 9.12C134.592 12.2682 140.849 16.2282 146.55 20.91C152.09 25.67 152.09 25.67 157.9 32.08C160.137 34.5797 162.171 37.2549 163.98 40.08C166.534 44.1363 168.871 48.3255 170.98 52.63C172.71 56.5059 174.202 60.4832 175.45 64.54C176.07 66.64 176.81 69.46 177.24 71.6C177.79 74.37 178.31 78.11 178.69 80.91C179.13 84.4117 179.28 87.9436 179.14 91.47C178.96 95.6 178.46 101.1 177.84 105.19C177.358 108.349 176.643 111.467 175.7 114.52C175.09 116.41 174.35 118.95 173.64 120.81C172.72 123.23 171.37 126.42 170.26 128.76C168.23 133.026 165.856 137.12 163.16 141C160.676 144.616 157.914 148.033 154.9 151.22C152.077 154.235 149.043 157.046 145.82 159.63C142.738 162.115 139.494 164.394 136.11 166.45C134.57 167.32 132.57 168.57 130.97 169.33C127.85 170.83 123.64 172.74 120.4 173.98L120.36 174Z" stroke="#A0A0A0" stroke-width="0.1" stroke-miterlimit="10"/>
</svg>
