<svg width="220" height="216" viewBox="0 0 220 216" fill="none" xmlns="http://www.w3.org/2000/svg">
<g id="Container">
<path id="Vector" fill-rule="evenodd" clip-rule="evenodd" d="M216.693 3.61513C223.043 9.83955 180.482 61.6497 121.629 119.337C62.7752 177.024 9.91731 218.742 3.56702 212.518C-0.0371306 208.985 12.1144 190.767 34.0578 165.127C31.6873 162.03 29.5248 158.798 27.5794 155.455C19.5481 141.65 15.2176 125.916 15.2176 109.746C15.2176 85.2736 25.1358 61.8036 42.7901 44.4991C60.4446 27.1946 84.3891 17.473 109.356 17.473C125.854 17.473 141.905 21.7176 155.99 29.5899C159.313 31.4474 162.527 33.5069 165.612 35.7603C193.204 12.8328 212.965 -0.0393853 216.693 3.61513ZM66.619 129.246C76.5274 118.838 87.2765 107.926 98.6321 96.7959C109.064 86.5709 119.308 76.8475 129.137 67.8039C122.995 65.0207 116.253 63.5393 109.356 63.5393C96.8538 63.5393 84.8633 68.4074 76.0227 77.0728C67.182 85.7382 62.2153 97.491 62.2153 109.746C62.2153 116.548 63.7455 123.195 66.619 129.246ZM56.9879 186.417C57.4411 186.713 57.8968 187.008 58.3548 187.296C73.4448 196.831 91.1312 202.015 109.363 202.015C134.33 202.015 158.274 192.294 175.928 174.989C193.583 157.685 203.502 134.214 203.502 109.742C203.502 91.872 198.213 74.5363 188.486 59.7454C188.278 59.4316 188.071 59.1191 187.86 58.8076C183.791 63.9837 179.359 69.3892 174.601 74.9723C180.468 85.5486 183.622 97.4862 183.622 109.742C183.622 129.047 175.798 147.56 161.872 161.21C147.945 174.86 129.057 182.529 109.363 182.529C96.7403 182.529 84.4493 179.378 73.5835 173.524C67.8355 178.173 62.2849 182.483 56.9879 186.417ZM80.3417 167.976C89.2958 172.262 99.2089 174.553 109.363 174.553C126.899 174.553 143.717 167.724 156.116 155.57C168.516 143.416 175.483 126.931 175.483 109.742C175.483 99.8897 173.195 90.2685 168.905 81.5616C164.211 86.92 159.24 92.417 154.028 98.0102C155.065 101.804 155.604 105.746 155.604 109.742C155.604 121.763 150.731 133.291 142.06 141.791C133.388 150.291 121.626 155.066 109.363 155.066C105.219 155.066 101.132 154.521 97.2025 153.471C91.4599 158.566 85.8246 163.41 80.3417 167.976Z" stroke="white" stroke-width="5" stroke-linejoin="round"/>
<g id="Component 8">
</g>
</g>
</svg>
