<svg width="261" height="64" viewBox="0 0 261 64" fill="none" xmlns="http://www.w3.org/2000/svg">
<g id="Vector">
<path fill-rule="evenodd" clip-rule="evenodd" d="M63.7469 0.18735C65.6406 2.08312 52.9476 17.8629 35.3961 35.4325C17.8446 53.0023 2.08098 65.7084 0.187157 63.8127C-0.887694 62.7366 2.73622 57.1882 9.2803 49.3788C8.57334 48.4358 7.92843 47.4514 7.34827 46.4332C4.95312 42.2284 3.66165 37.4366 3.66165 32.5115C3.66165 25.058 6.61951 17.9098 11.8845 12.6394C17.1495 7.36893 24.2904 4.40803 31.7363 4.40803C36.6563 4.40803 41.4431 5.70082 45.6436 8.09848C46.6346 8.66421 47.5931 9.29146 48.5131 9.97777C56.7419 2.99477 62.6351 -0.925704 63.7469 0.18735ZM18.9909 38.4507C21.9458 35.2808 25.1515 31.9574 28.538 28.5674C31.6491 25.4531 34.7039 22.4917 37.6354 19.7373C35.8035 18.8896 33.7931 18.4384 31.7363 18.4384C28.0077 18.4384 24.4318 19.9211 21.7953 22.5603C19.1588 25.1995 17.6776 28.7791 17.6776 32.5115C17.6776 34.5832 18.1339 36.6079 18.9909 38.4507ZM16.1186 55.8631C16.2538 55.9535 16.3897 56.0431 16.5263 56.1311C21.0265 59.0349 26.301 60.6139 31.7381 60.6139C39.184 60.6139 46.3247 57.6531 51.5897 52.3827C56.8547 47.1123 59.8129 39.9639 59.8129 32.5104C59.8129 27.0677 58.2355 21.7878 55.3346 17.2829C55.2728 17.1873 55.211 17.0921 55.148 16.9973C53.9346 18.5738 52.6128 20.2201 51.1939 21.9206C52.9436 25.1418 53.884 28.7776 53.884 32.5104C53.884 38.3899 51.5508 44.0285 47.3976 48.1859C43.2445 52.3433 37.6116 54.679 31.7381 54.679C27.9738 54.679 24.3083 53.7195 21.0679 51.9363C19.3537 53.3522 17.6983 54.6649 16.1186 55.8631ZM23.0833 50.2467C25.7537 51.5522 28.71 52.2497 31.7381 52.2497C36.9679 52.2497 41.9833 50.17 45.6813 46.4682C49.3793 42.7664 51.4569 37.7455 51.4569 32.5104C51.4569 29.5096 50.7745 26.5793 49.4953 23.9275C48.0952 25.5595 46.6129 27.2337 45.0583 28.9372C45.3678 30.0928 45.5284 31.2933 45.5284 32.5104C45.5284 36.1715 44.0754 39.6827 41.4892 42.2714C38.9031 44.8602 35.3955 46.3147 31.7381 46.3147C30.5023 46.3147 29.2835 46.1488 28.1117 45.8289C26.3991 47.3807 24.7185 48.8561 23.0833 50.2467Z" fill="white"/>
<path fill-rule="evenodd" clip-rule="evenodd" d="M135.766 50.3855V13.6145H141.537V24.298H149.973C155.137 24.298 157.718 26.915 157.718 32.1491V42.5344C157.718 47.7685 155.137 50.3855 149.973 50.3855H135.766ZM141.537 45.3171H149.677C151.19 45.3171 151.947 44.5551 151.947 43.0313V31.6522C151.947 30.1283 151.19 29.3664 149.677 29.3664H141.537V45.3171Z" fill="white"/>
<path fill-rule="evenodd" clip-rule="evenodd" d="M75.7981 16.099V50.3855H81.8166V38.8573H92.1764C97.5371 38.8573 100.218 36.174 100.218 30.8074V24.1986C100.218 18.7989 97.5371 16.099 92.1764 16.099H75.7981ZM92.0284 33.3416H81.8166V21.6147H92.0284C93.4754 21.6147 94.199 22.3269 94.199 23.7514V31.1553C94.199 32.6129 93.4754 33.3416 92.0284 33.3416Z" fill="white"/>
<path d="M106.422 24.298V42.5344C106.422 47.7685 109.02 50.3855 114.216 50.3855H128.375V24.298H122.603V45.3171H114.463C112.95 45.3171 112.194 44.5551 112.194 43.0313V24.298H106.422Z" fill="white"/>
<path d="M164.522 13.6145V50.3855H170.294V13.6145H164.522Z" fill="white"/>
<path d="M177.581 19.7761V13.8629H183.648V19.7761H177.581Z" fill="white"/>
<path d="M177.729 50.3855V24.298H183.5V50.3855H177.729Z" fill="white"/>
<path d="M190.486 32.1491V42.5344C190.486 47.7685 193.084 50.3855 198.28 50.3855H210.219V45.3171H198.527C197.014 45.3171 196.258 44.5551 196.258 43.0313V31.6522C196.258 30.1283 197.014 29.3664 198.527 29.3664H210.219V24.298H198.28C193.084 24.298 190.486 26.915 190.486 32.1491Z" fill="white"/>
<path fill-rule="evenodd" clip-rule="evenodd" d="M227.883 13.7895L215.954 50.2105H222.824L225.353 42.1873H240.375L242.852 50.2105H249.622L237.898 13.7895H227.883ZM238.636 36.3283H227.145L232.363 19.6485H233.365L238.636 36.3283Z" fill="white"/>
<path d="M254.57 13.7895V50.2105H261V13.7895H254.57Z" fill="white"/>
</g>
</svg>
