<svg width="186" height="182" viewBox="0 0 186 182" fill="none" xmlns="http://www.w3.org/2000/svg">
<g id="Interface-Essential-Paginate-Filter-Heart--Streamline-Pixel">
<path id="Vector" d="M176.158 8.82227H185.508V145.744H176.158V8.82227Z" fill="white"/>
<path id="Vector_2" d="M148.233 182.281V173.117H157.522V154.848H176.159V145.744H36.4688V154.848H45.8182V164.012H55.1064V154.848H73.744V164.012H83.0322V154.848H101.67V164.012H110.958V154.848H129.596V164.012H138.945V154.848H148.233V164.012H138.945V173.117H120.307V164.012H110.958V173.117H92.3816V164.012H83.0322V173.117H64.4558V164.012H55.1064V173.117H36.4688V164.012H27.1806V173.117H8.54297V182.281H148.233Z" fill="white"/>
<path id="Vector_3" d="M67.6455 115.731H78.6171V104.883H89.6609V93.9636H100.633V83.1153H111.604V93.9636H122.648V104.883H133.62V115.731H144.663V126.651H155.635V148.115L144.663 148.115H111.604H100.633H67.6455H56.6738V126.651H67.6455V115.731Z" fill="white"/>
<path id="Vector_4" d="M74.1109 40.2943H83.3859V31.1771H92.7219V22H101.997H111.272H120.608V31.1771H129.883V40.2943H139.219V49.4714H148.494V76.8829H139.219V86H111.272H101.997H74.1109V76.8829H64.8359V49.4714H74.1109V40.2943Z" fill="white"/>
<path id="Vector_5" d="M36.4688 -0.28125H176.159V8.82292H36.4688V-0.28125Z" fill="white"/>
<path id="Vector_6" d="M17.8926 154.85H27.1808V164.014H17.8926V154.85Z" fill="white"/>
<path id="Vector_7" d="M17.8915 154.848V145.744H8.54215V127.476H17.8915V118.372H8.54215V100.104H17.8915V90.9994H8.54215V72.7311H17.8915V63.627H8.54215V45.3587H17.8915V36.1947H27.1797V45.3587H17.8915V54.4629H27.1797V72.7311H17.8915V81.8353H27.1797V100.104H17.8915V109.268H27.1797V127.476H17.8915V136.64H27.1797V145.744H36.468V8.82227H27.1797V27.0905H8.54215V36.1947H-0.746094V173.117H8.54215V154.848H17.8915Z" fill="white"/>
</g>
</svg>
