<svg width="195" height="192" viewBox="0 0 195 192" fill="none" xmlns="http://www.w3.org/2000/svg">
<g id="Group">
<path id="Vector" d="M186.101 173.564H176.813V182.728H111.612V164.46H167.464V100.551H176.813V91.4466H158.176V18.4336H148.887V82.2826H139.538V91.4466H65.0487V82.2826H55.7604V91.4466H-0.152344V173.564H9.19701V164.46H83.6863V173.564H92.9745V164.46H102.324V173.564H92.9745V182.728H18.4853V191.832H195.39V109.715H186.101V173.564ZM74.398 155.296H9.19701V100.551H74.398V155.296ZM92.9745 155.296V100.551H158.176V155.296H92.9745Z" fill="white"/>
<path id="Vector_2" d="M176.812 100.551H186.101V109.715H176.812V100.551Z" fill="white"/>
<path id="Vector_3" d="M167.463 164.461H176.812V173.565H167.463V164.461Z" fill="white"/>
<path id="Vector_4" d="M139.537 9.26953H148.886V18.4336H139.537V9.26953Z" fill="white"/>
<path id="Vector_5" d="M130.25 118.82H139.538V127.924H130.25V118.82Z" fill="white"/>
<path id="Vector_6" d="M130.25 73.1797H139.538V82.2839H130.25V73.1797Z" fill="white"/>
<path id="Vector_7" d="M120.9 109.715H130.25V118.819H120.9V109.715Z" fill="white"/>
<path id="Vector_8" d="M139.538 137.088H111.612V127.924H102.324V146.192H148.888V127.924H139.538V137.088Z" fill="white"/>
<path id="Vector_9" d="M111.611 118.82H120.9V127.924H111.611V118.82Z" fill="white"/>
<path id="Vector_10" d="M102.324 18.4336H92.9747V27.5378H83.6864V18.4336H74.3982V27.5378H65.0488V36.7018H74.3982V45.806H83.6864V54.9102H92.9747V45.806H102.324V36.7018H111.612V27.5378H102.324V18.4336Z" fill="white"/>
<path id="Vector_11" d="M130.249 73.179V9.27018H139.537V0.166016H46.4102V82.2832H55.7595V73.179H130.249ZM55.7595 9.27018H120.899V64.0749H55.7595V9.27018Z" fill="white"/>
<path id="Vector_12" d="M46.4102 118.82H55.7595V137.089H46.4102V118.82Z" fill="white"/>
<path id="Vector_13" d="M27.834 109.715H46.4105V118.819H27.834V109.715Z" fill="white"/>
<path id="Vector_14" d="M27.834 137.088H46.4105V146.192H27.834V137.088Z" fill="white"/>
<path id="Vector_15" d="M18.4844 118.82H27.8337V137.089H18.4844V118.82Z" fill="white"/>
<path id="Vector_16" d="M9.19727 173.564H18.4855V182.729H9.19727V173.564Z" fill="white"/>
</g>
</svg>
